<?xml version="1.0" encoding="utf-8"?>
<!-- Generator: Adobe Illustrator 16.0.0, SVG Export Plug-In . SVG Version: 6.00 Build 0)  -->
<!DOCTYPE svg PUBLIC "-//W3C//DTD SVG 1.1//EN" "http://www.w3.org/Graphics/SVG/1.1/DTD/svg11.dtd">
<svg version="1.1" id="Capa_1" xmlns="http://www.w3.org/2000/svg" xmlns:xlink="http://www.w3.org/1999/xlink" x="0px" y="0px"
	 width="512px" height="512px" viewBox="0 0 512 512" enable-background="new 0 0 512 512" xml:space="preserve">
<path fill="#FFFFFF" d="M284,382.001h-93c-11.046,0-20,8.954-20,20v90c0,11.046,8.954,20,20,20h93c11.046,0,20-8.954,20-20v-90
	C304,390.955,295.046,382.001,284,382.001L284,382.001z M264,472.001h-53v-50h53V472.001z M457,382.001h-93
	c-11.046,0-20,8.954-20,20v90c0,11.046,8.954,20,20,20h93c11.046,0,20-8.954,20-20v-90C477,390.955,468.046,382.001,457,382.001
	L457,382.001z M437,472.001h-53v-50h53V472.001z M111,382.001H20c-11.046,0-20,8.954-20,20v90c0,11.046,8.954,20,20,20h91
	c11.046,0,20-8.954,20-20v-90C131,390.955,122.046,382.001,111,382.001L111,382.001z M91,472.001H40v-50h51V472.001z M65,347.001
	c11.046,0,20-8.954,20-20v-26c0-22.056,17.944-40,40-40h91v65c0,11.046,8.954,20,20,20s20-8.954,20-20v-196h32
	c11.046,0,20-8.954,20-20v-90c0-11.046-8.954-20-20-20H184c-11.046,0-20,8.954-20,20v90c0,11.046,8.954,20,20,20h32v91h-91
	c-44.112,0-80,35.888-80,80v26C45,338.047,53.954,347.001,65,347.001z M204,40.001h64v50h-64V40.001z M509.869,271.082
	l-8.084,16.083c-4.349,8.647-14.266,12.938-23.544,10.196l-24.067-7.282c-5.108,3.989-10.712,7.369-16.708,10.035l-4.214,25.046
	c-1.553,9.703-9.923,16.84-19.749,16.84h-19.005c-9.826,0-18.196-7.139-19.749-16.84l-4.214-25.046
	c-5.995-2.666-11.598-6.046-16.708-10.035l-24.066,7.282c-9.278,2.744-19.195-1.549-23.544-10.196l-8.084-16.083
	c-4.414-8.779-1.795-19.463,6.176-25.208l18.889-13.555c-0.116-1.76-0.148-8.271-0.069-9.733l-19.265-14.713
	c-8.281-6.324-10.319-17.946-4.686-26.71l10.915-16.978c5.154-8.018,15.25-11.282,24.125-7.804l19.482,7.641
	c5.273-4.135,11.075-7.624,17.294-10.343l3.82-21.222c1.715-9.526,10.004-16.457,19.684-16.457h19.005
	c9.679,0,17.969,6.931,19.684,16.457l3.82,21.222c6.219,2.719,12.021,6.208,17.294,10.343l19.482-7.641
	c8.875-3.479,18.972-0.214,24.125,7.804l10.915,16.978c5.635,8.764,3.596,20.386-4.686,26.71l-19.265,14.713
	c0.08,1.462,0.047,7.973-0.069,9.733l18.889,13.555C511.665,251.619,514.283,262.304,509.869,271.082z M444,229.001
	c0-22.091-17.908-40-39.999-40s-39.999,17.909-39.999,40s17.908,39.999,39.999,40C426.092,269,444,251.092,444,229.001z"/>
</svg>
