<?xml version="1.0" encoding="utf-8"?>
<!-- Generator: Adobe Illustrator 16.0.0, SVG Export Plug-In . SVG Version: 6.00 Build 0)  -->
<!DOCTYPE svg PUBLIC "-//W3C//DTD SVG 1.1//EN" "http://www.w3.org/Graphics/SVG/1.1/DTD/svg11.dtd">
<svg version="1.1" id="Layer_1" xmlns="http://www.w3.org/2000/svg" xmlns:xlink="http://www.w3.org/1999/xlink" x="0px" y="0px"
	 width="512px" height="512px" viewBox="0 0 512 512" enable-background="new 0 0 512 512" xml:space="preserve">
<path fill="#FFFFFF" d="M271,414.301V195.699c20.266-6.387,35-25.352,35-47.699c0-27.57-22.43-50-50-50s-50,22.43-50,50
	c0,22.348,14.734,41.313,35,47.699v218.602c-20.266,6.387-35,25.352-35,47.699c0,27.57,22.43,50,50,50s50-22.43,50-50
	C306,439.652,291.266,420.688,271,414.301z"/>
<path fill="#FFFFFF" d="M125.949,265.875c16.605,0,32.918-3.715,47.754-10.816c11.383,8.848,23.961,15.852,37.297,20.859v-61.766
	c-7.289-4.961-13.746-11.145-19.145-18.379C181.484,181.871,176,165.352,176,148c0-44.113,35.887-80,80-80s80,35.887,80,80
	c0,17.352-5.484,33.871-15.855,47.773c-5.398,7.234-11.855,13.414-19.145,18.379v65.152c21.156-6.172,40.703-17.199,57.031-32.355
	c15.023,12.164,33.824,18.926,53.52,18.926c46.938,0,85.125-38.188,85.125-85.125s-38.188-85.125-85.125-85.125
	c-5.195,0-10.336,0.469-15.387,1.395c-8.523-25.242-24.129-47.891-44.953-64.91C325.879,11.402,293.875,0,261.102,0
	c-41.445,0-79.84,17.465-106.91,48.273c-9.184-2.426-18.645-3.648-28.242-3.648c-60.996,0-110.625,49.625-110.625,110.625
	S64.949,265.875,125.949,265.875z"/>
<path fill="#FFFFFF" d="M150,293.766V366H97.699C91.313,345.734,72.348,331,50,331c-27.57,0-50,22.43-50,50s22.43,50,50,50
	c22.348,0,41.313-14.734,47.699-35H180V294.754c-3.465-1.848-6.879-3.801-10.211-5.887C163.328,290.98,156.703,292.602,150,293.766z
	"/>
<path fill="#FFFFFF" d="M462,351c-11.387,0-21.887,3.832-30.301,10.266L362,320.406v-35.762c-0.621-0.297-1.242-0.59-1.859-0.895
	c-8.895,6.25-18.316,11.609-28.141,16.043v37.801l82.348,48.273C412.828,390.645,412,395.727,412,401c0,27.57,22.43,50,50,50
	s50-22.43,50-50S489.57,351,462,351z"/>
</svg>
