<?xml version="1.0" encoding="utf-8"?>
<!-- Generator: Adobe Illustrator 16.0.0, SVG Export Plug-In . SVG Version: 6.00 Build 0)  -->
<!DOCTYPE svg PUBLIC "-//W3C//DTD SVG 1.1//EN" "http://www.w3.org/Graphics/SVG/1.1/DTD/svg11.dtd">
<svg version="1.1" id="Icons" xmlns="http://www.w3.org/2000/svg" xmlns:xlink="http://www.w3.org/1999/xlink" x="0px" y="0px"
	 width="512px" height="512px" viewBox="0 0 512 512" enable-background="new 0 0 512 512" xml:space="preserve">
<path fill="#FFFFFF" d="M409.845,118.947c-12.138,0-21.978-9.789-21.978-21.864V46.635c-1.578-0.365-3.193-0.556-4.813-0.568
	h-207.64c-4.046,0-7.326,3.263-7.326,7.289v204.063h131.868c16.185,0,29.303,13.053,29.303,29.152v102.032
	c0,16.101-13.118,29.152-29.303,29.152H168.088v29.152c0,4.025,3.279,7.288,7.326,7.288h278.388c4.046,0,7.325-3.263,7.325-7.288
	V123.735c-0.012-1.612-0.205-3.218-0.572-4.788H409.845z"/>
<path fill="#FFFFFF" d="M314.607,388.603V286.57c0-8.049-6.56-14.576-14.651-14.576H65.524c-8.092,0-14.652,6.527-14.652,14.576
	v102.032c0,8.05,6.56,14.576,14.652,14.576h234.432C308.048,403.179,314.607,396.652,314.607,388.603z M148.828,380.797
	c-0.864,0.346-1.787,0.521-2.718,0.518c-2.998,0.002-5.694-1.813-6.806-4.585l-6.945-17.279h-31.106l-6.945,17.279
	c-1.501,3.74-5.765,5.561-9.524,4.067c-3.758-1.492-5.588-5.734-4.087-9.475l0,0L110,298.443c1.497-3.74,5.758-5.564,9.517-4.073
	c1.869,0.74,3.35,2.213,4.095,4.073l29.303,72.879c1.502,3.739-0.326,7.979-4.083,9.473
	C148.831,380.796,148.829,380.796,148.828,380.797z M190.066,352.163h-7.326v21.863c0,4.025-3.28,7.288-7.326,7.288
	c-4.046,0-7.326-3.263-7.326-7.288v-72.88c0-4.025,3.279-7.287,7.326-7.287h14.652c16.184,0,29.304,13.052,29.304,29.151
	S206.25,352.163,190.066,352.163z M263.326,366.738c4.045,0,7.325,3.263,7.325,7.288s-3.28,7.288-7.325,7.288h-29.305
	c-4.046,0-7.326-3.263-7.326-7.288s3.28-7.288,7.326-7.288h7.326v-58.304h-7.326c-4.046,0-7.326-3.262-7.326-7.288
	c0-4.025,3.28-7.287,7.326-7.287h29.305c4.045,0,7.325,3.262,7.325,7.287c0,4.026-3.28,7.288-7.325,7.288H256v58.304H263.326z"/>
<path fill="#FFFFFF" d="M190.066,308.435h-7.326v29.152h7.326c8.092,0,14.652-6.526,14.652-14.576
	C204.718,314.962,198.158,308.435,190.066,308.435z"/>
<polygon fill="#FFFFFF" points="107.114,344.875 126.499,344.875 116.806,320.767 "/>
<path fill="#FFFFFF" d="M409.845,104.371h40.923L402.52,56.372v40.71C402.52,101.108,405.799,104.371,409.845,104.371z"/>
</svg>
