<?xml version="1.0" encoding="utf-8"?>
<!-- Generator: Adobe Illustrator 16.0.0, SVG Export Plug-In . SVG Version: 6.00 Build 0)  -->
<!DOCTYPE svg PUBLIC "-//W3C//DTD SVG 1.1//EN" "http://www.w3.org/Graphics/SVG/1.1/DTD/svg11.dtd">
<svg version="1.1" id="Capa_1" xmlns="http://www.w3.org/2000/svg" xmlns:xlink="http://www.w3.org/1999/xlink" x="0px" y="0px"
	 width="612px" height="792px" viewBox="0 0 612 792" enable-background="new 0 0 612 792" xml:space="preserve">
<g>
	<g>
		<path fill="#FFFFFF" d="M517.254,90H94.75c-9.902,0-17.93,8.028-17.93,17.93v523.326c0,4.755,1.89,9.316,5.251,12.679
			l52.813,52.813c7.002,7.002,18.354,7.002,25.357,0l40.135-40.135l40.133,40.135c3.362,3.362,7.922,5.252,12.677,5.252
			s9.316-1.889,12.679-5.252L306,656.613l40.135,40.135c3.362,3.362,7.923,5.252,12.677,5.252c4.755,0,9.316-1.889,12.679-5.252
			l40.134-40.135l40.134,40.135c3.502,3.501,8.089,5.252,12.679,5.252c4.588,0,9.178-1.751,12.678-5.252l52.813-52.813
			c3.362-3.362,5.252-7.923,5.252-12.679V107.93C535.184,98.028,527.154,90,517.254,90z M288.068,224.677v-20.723
			c0-9.902,8.029-17.93,17.93-17.93c9.903,0,17.93,8.028,17.93,17.93v20.479h20.481c9.901,0,17.93,8.028,17.93,17.93
			s-8.028,17.929-17.93,17.929h-51.211c-11.292,0-20.479,9.188-20.479,20.479c0,11.293,9.188,20.481,20.479,20.481h25.607
			c31.065,0,56.34,25.272,56.34,56.339c0,29.336-22.544,53.497-51.217,56.096v20.724c0,9.901-8.026,17.929-17.93,17.929
			c-9.9,0-17.93-8.027-17.93-17.929v-20.482h-20.479c-9.901,0-17.93-8.027-17.93-17.929s8.029-17.93,17.93-17.93h51.215
			c11.292,0,20.48-9.187,20.48-20.479c0-11.292-9.188-20.479-20.48-20.479h-25.607c-31.066,0-56.339-25.275-56.339-56.341
			C236.86,251.435,259.4,227.276,288.068,224.677z M402.024,548.362H209.978c-9.902,0-17.929-8.028-17.929-17.93
			c0-9.902,8.027-17.93,17.929-17.93h192.047c9.901,0,17.93,8.027,17.93,17.93C419.954,540.334,411.926,548.362,402.024,548.362z"/>
	</g>
</g>
</svg>
