<?xml version="1.0" encoding="utf-8"?>
<!-- Generator: Adobe Illustrator 16.0.0, SVG Export Plug-In . SVG Version: 6.00 Build 0)  -->
<!DOCTYPE svg PUBLIC "-//W3C//DTD SVG 1.1//EN" "http://www.w3.org/Graphics/SVG/1.1/DTD/svg11.dtd">
<svg version="1.1" id="Capa_1" xmlns="http://www.w3.org/2000/svg" xmlns:xlink="http://www.w3.org/1999/xlink" x="0px" y="0px"
	 width="512px" height="512px" viewBox="0 0 512 512" enable-background="new 0 0 512 512" xml:space="preserve">
<g>
	<g>
		<path fill="#FFFFFF" d="M156.601,207.356h14.221v16.709h-14.221V207.356z"/>
		<path fill="#FFFFFF" d="M156.601,240.775h14.221v16.709h-14.221V240.775z"/>
		<path fill="#FFFFFF" d="M156.601,274.194h14.221v16.71h-14.221V274.194z"/>
	</g>
	<g>
		<g>
			<path fill="#FFFFFF" d="M213.482,163.493h14.221v35.508h-14.221V163.493z"/>
			<path fill="#FFFFFF" d="M241.924,163.493h14.22v35.508h-14.22V163.493z"/>
			<path fill="#FFFFFF" d="M270.363,163.493h14.222v35.508h-14.222V163.493z"/>
			<path fill="#FFFFFF" d="M213.482,215.711h14.221v35.507h-14.221V215.711z"/>
			<path fill="#FFFFFF" d="M241.924,215.711h14.22v35.507h-14.22V215.711z"/>
			<path fill="#FFFFFF" d="M270.363,215.711h14.222v35.507h-14.222V215.711z"/>
			<path fill="#FFFFFF" d="M213.482,267.928h14.221v35.51h-14.221V267.928z"/>
			<path fill="#FFFFFF" d="M241.924,267.928h14.22v35.51h-14.22V267.928z"/>
			<path fill="#FFFFFF" d="M270.363,267.928h14.222v35.51h-14.222V267.928z"/>
		</g>
		<g>
			<path fill="#FFFFFF" d="M327.246,240.775h14.221v16.709h-14.221V240.775z"/>
			<path fill="#FFFFFF" d="M327.246,274.194h14.221v16.71h-14.221V274.194z"/>
			<path fill="#FFFFFF" d="M327.246,307.614h14.221v16.709h-14.221V307.614z"/>
		</g>
		<path fill="#FFFFFF" d="M313.025,155.138v-22.976H185.042v22.881l-57.206-19.764l-0.005,255.883h242.695V155.138H313.025z
			 M185.042,374.452H141.96V157.604l43.082,14.853L185.042,374.452L185.042,374.452z M270.363,374.452h-14.22v-37.597h14.22V374.452
			z M241.924,374.452h-14.221v-37.597h14.221V374.452z M298.806,374.452h-14.221v-54.307h-71.103v54.307h-14.22v-225.58h99.543
			V374.452z M356.396,374.452h-43.37V209.444h43.37V374.452z M313.025,192.734v-20.887h43.37v20.887H313.025z"/>
	</g>
</g>
</svg>
