<?xml version="1.0" encoding="utf-8"?>
<!-- Generator: Adobe Illustrator 16.0.0, SVG Export Plug-In . SVG Version: 6.00 Build 0)  -->
<!DOCTYPE svg PUBLIC "-//W3C//DTD SVG 1.1//EN" "http://www.w3.org/Graphics/SVG/1.1/DTD/svg11.dtd">
<svg version="1.1" id="Capa_1" xmlns="http://www.w3.org/2000/svg" xmlns:xlink="http://www.w3.org/1999/xlink" x="0px" y="0px"
	 width="512px" height="512px" viewBox="0 0 512 512" enable-background="new 0 0 512 512" xml:space="preserve">
<g>
	<path fill="#FFFFFF" d="M194.707,422.749h-3.597c-1.891,0-3.429-1.538-3.429-3.43v-17.275c0-5.671-3.847-10.503-9.355-11.749
		c-19.146-4.33-37.306-11.861-53.98-22.386c-4.779-3.015-10.916-2.322-14.929,1.689l-12.235,12.234
		c-0.875,0.874-1.895,1.005-2.425,1.005c-0.53,0-1.55-0.131-2.423-1.004l-36.255-36.255c-1.336-1.337-1.336-3.513,0-4.85
		l12.234-12.233c4.011-4.008,4.707-10.146,1.691-14.93c-10.522-16.672-18.054-34.834-22.386-53.98
		c-1.247-5.508-6.079-9.355-11.75-9.355H18.595c-1.892,0-3.43-1.538-3.43-3.429V195.53c0-1.891,1.538-3.429,3.43-3.429h17.274
		c5.67,0,10.503-3.847,11.75-9.355c4.331-19.146,11.861-37.308,22.387-53.982c3.015-4.779,2.319-10.917-1.69-14.926l-12.236-12.235
		c-1.336-1.337-1.336-3.514,0-4.851l36.255-36.255c0.874-0.874,1.894-1.004,2.423-1.004c0.531,0,1.551,0.13,2.424,1.004
		l12.237,12.238c4.012,4.008,10.15,4.701,14.926,1.687c4.111-2.595,8.391-5.048,12.719-7.293c3.717-1.928,5.167-6.504,3.24-10.222
		c-1.929-3.718-6.507-5.168-10.222-3.24c-3.958,2.052-7.879,4.266-11.687,6.598l-10.491-10.491
		c-3.512-3.512-8.181-5.445-13.147-5.445s-9.635,1.934-13.147,5.446L45.355,86.032c-7.248,7.25-7.248,19.044,0,26.295l10.491,10.491
		c-10.309,16.824-17.85,35.007-22.444,54.121H18.595C8.341,176.938,0,185.279,0,195.531v51.271c0,10.253,8.341,18.594,18.595,18.594
		h14.807c4.595,19.115,12.137,37.298,22.444,54.119l-10.491,10.492c-7.249,7.248-7.249,19.044,0,26.293l36.255,36.256
		c3.512,3.512,8.181,5.445,13.147,5.445s9.636-1.934,13.148-5.445l10.49-10.49c16.826,10.311,35.007,17.85,54.121,22.444v14.809
		c0,10.253,8.34,18.594,18.594,18.594h3.597c4.188,0,7.583-3.395,7.583-7.582S198.895,422.749,194.707,422.749L194.707,422.749z"/>
	<path fill="#FFFFFF" d="M165.711,55.412c4.225-1.3,8.469-2.436,12.616-3.373c5.509-1.247,9.355-6.078,9.355-11.75V23.015
		c0-1.891,1.538-3.429,3.429-3.429h51.272c1.891,0,3.429,1.538,3.429,3.429V40.29c0,5.672,3.848,10.504,9.354,11.75
		c19.145,4.331,37.306,11.862,53.982,22.387c4.775,3.014,10.914,2.32,14.927-1.689l12.234-12.235c1.339-1.337,3.514-1.338,4.85,0
		l36.254,36.255c0.875,0.874,1.005,1.895,1.005,2.424c0,0.531-0.13,1.551-1.005,2.426l-12.235,12.236
		c-4.01,4.009-4.703,10.147-1.689,14.926c7.867,12.466,14.112,25.885,18.558,39.883c1.025,3.228,4.009,5.288,7.224,5.288
		c0.761,0,1.535-0.115,2.297-0.358c3.99-1.268,6.199-5.531,4.932-9.521c-4.584-14.43-10.922-28.293-18.854-41.241l10.491-10.49
		c7.249-7.25,7.249-19.045,0-26.295l-36.255-36.255c-7.25-7.249-19.046-7.246-26.295,0l-10.49,10.49
		c-16.826-10.31-35.007-17.849-54.12-22.444V23.015c0-10.252-8.34-18.594-18.594-18.594H191.11c-10.253,0-18.594,8.34-18.594,18.594
		v14.809c-3.729,0.9-7.507,1.938-11.267,3.096c-4.002,1.231-6.249,5.476-5.016,9.478C157.467,54.399,161.715,56.645,165.711,55.412
		L165.711,55.412z"/>
	<path fill="#FFFFFF" d="M341.086,167.174c3.739-1.883,5.244-6.442,3.362-10.182c-11.729-23.293-29.611-42.956-51.718-56.864
		c-22.729-14.301-49.005-21.86-75.983-21.86c-78.794,0-142.899,64.104-142.899,142.899c0,57.93,34.567,109.738,88.063,131.988
		c0.951,0.396,1.938,0.583,2.909,0.583c2.97,0,5.792-1.758,7.004-4.672c1.608-3.867-0.223-8.305-4.089-9.912
		c-47.821-19.891-78.721-66.203-78.721-117.987c0-70.434,57.301-127.734,127.734-127.734c48.558,0,92.301,26.967,114.156,70.378
		C332.787,167.551,337.344,169.057,341.086,167.174L341.086,167.174z"/>
	<path fill="#FFFFFF" d="M216.746,123.761c34.451,0,66.697,18.551,84.155,48.413c2.114,3.616,6.76,4.833,10.372,2.719
		c3.615-2.113,4.832-6.757,2.719-10.373c-20.166-34.495-57.429-55.923-97.246-55.923c-62.071,0-112.571,50.499-112.571,112.57
		c0,41.401,22.699,79.38,59.24,99.115c1.146,0.618,2.38,0.911,3.597,0.911c2.696,0,5.308-1.441,6.677-3.98
		c1.991-3.686,0.617-8.285-3.067-10.274c-31.632-17.083-51.283-49.949-51.283-85.771
		C119.34,167.458,163.037,123.761,216.746,123.761z"/>
	<path fill="#FFFFFF" d="M496.276,310.688h-9.397c-3.349-13.275-8.6-25.938-15.648-37.732l6.66-6.66
		c6.129-6.13,6.128-16.104,0-22.235l-26.804-26.803c-6.129-6.128-16.104-6.131-22.236,0l-6.659,6.659
		c-11.793-7.051-24.455-12.302-37.731-15.649v-9.399c0-8.67-7.054-15.722-15.723-15.722h-37.904c-8.67,0-15.724,7.053-15.724,15.722
		v9.399c-13.275,3.347-25.939,8.599-37.732,15.649l-6.658-6.659c-6.131-6.131-16.106-6.13-22.237,0l-26.803,26.803
		c-6.128,6.129-6.129,16.105,0.001,22.236l6.659,6.659c-7.049,11.794-12.302,24.458-15.649,37.732h-9.397
		c-8.67,0-15.724,7.054-15.724,15.722v37.905c0,8.67,7.054,15.722,15.724,15.722h9.397c3.349,13.275,8.6,25.939,15.649,37.732
		l-6.66,6.659c-2.969,2.971-4.605,6.918-4.605,11.118c0,4.199,1.636,8.147,4.605,11.117l26.803,26.804
		c6.131,6.131,16.107,6.129,22.237,0l6.658-6.66c11.793,7.05,24.455,12.301,37.732,15.648v9.398c0,8.67,7.054,15.723,15.724,15.723
		h37.904c8.669,0,15.723-7.054,15.723-15.723v-9.398c13.275-3.348,25.94-8.6,37.731-15.648l6.66,6.66
		c6.131,6.128,16.104,6.128,22.235-0.001l26.804-26.804c6.129-6.131,6.129-16.104,0-22.235l-6.66-6.66
		c7.05-11.794,12.302-24.457,15.648-37.732h9.398c8.669,0,15.723-7.053,15.723-15.722v-37.905
		C512,317.742,504.947,310.688,496.276,310.688L496.276,310.688z M496.836,364.315c0,0.308-0.25,0.558-0.559,0.558h-12.772
		c-5.121,0-9.486,3.477-10.613,8.457c-3.151,13.934-8.634,27.151-16.294,39.289c-2.726,4.319-2.099,9.867,1.523,13.488l9.045,9.045
		c0.219,0.217,0.219,0.572,0,0.789l-26.804,26.804c-0.218,0.219-0.572,0.218-0.788,0l-9.044-9.045
		c-3.622-3.622-9.17-4.25-13.489-1.523c-12.137,7.66-25.354,13.142-39.286,16.294c-4.981,1.125-8.46,5.489-8.46,10.613v12.771
		c0,0.309-0.249,0.559-0.558,0.559h-37.904c-0.309,0-0.56-0.251-0.56-0.559v-12.771c0-5.123-3.478-9.487-8.457-10.613
		c-13.934-3.152-27.152-8.634-39.289-16.295c-1.795-1.133-3.803-1.686-5.794-1.686c-2.802,0-5.575,1.094-7.692,3.21l-9.045,9.046
		c-0.218,0.219-0.571,0.218-0.789,0l-26.803-26.804c-0.218-0.217-0.218-0.572-0.001-0.789l9.048-9.047
		c3.622-3.623,4.246-9.17,1.521-13.487c-7.66-12.137-13.142-25.355-16.293-39.29c-1.127-4.979-5.493-8.456-10.614-8.456h-12.771
		c-0.309,0-0.559-0.25-0.559-0.558V326.41c0-0.308,0.25-0.558,0.559-0.558h12.771c5.121,0,9.487-3.477,10.614-8.456
		c3.151-13.934,8.634-27.152,16.293-39.289c2.725-4.318,2.1-9.864-1.523-13.488l-9.045-9.044c-0.218-0.218-0.218-0.572,0-0.791
		l26.803-26.803c0.218-0.216,0.571-0.217,0.789,0l9.047,9.047c3.621,3.62,9.168,4.247,13.487,1.521
		c12.136-7.66,25.354-13.141,39.286-16.292c4.98-1.126,8.458-5.491,8.458-10.615v-12.771c0-0.308,0.251-0.558,0.56-0.558h37.904
		c0.309,0,0.559,0.25,0.559,0.558v12.771c0,5.125,3.478,9.49,8.457,10.614c13.934,3.152,27.151,8.634,39.29,16.294
		c4.319,2.726,9.866,2.098,13.486-1.523l9.044-9.045c0.217-0.218,0.572-0.218,0.789-0.001l26.804,26.803
		c0.219,0.217,0.219,0.572,0,0.79l-9.043,9.044c-3.624,3.622-4.251,9.169-1.525,13.488c7.66,12.137,13.143,25.356,16.294,39.291
		c1.127,4.979,5.492,8.455,10.613,8.455h12.771c0.309,0,0.56,0.25,0.56,0.559L496.836,364.315L496.836,364.315z"/>
	<path fill="#FFFFFF" d="M349.785,241.159c-57.459,0-104.206,46.747-104.206,104.206c0,57.458,46.747,104.205,104.206,104.205
		c22.402,0,43.754-7.008,61.748-20.265c3.37-2.483,4.09-7.23,1.606-10.602c-2.484-3.372-7.229-4.09-10.602-1.606
		c-15.368,11.323-33.609,17.31-52.753,17.31c-49.098,0-89.041-39.944-89.041-89.041c0-49.098,39.943-89.041,89.041-89.041
		c49.096,0,89.04,39.943,89.04,89.041c0,18.07-5.386,35.469-15.574,50.314c-2.369,3.453-1.492,8.173,1.96,10.543
		c3.456,2.367,8.173,1.49,10.543-1.961c11.93-17.384,18.235-37.75,18.235-58.896C453.989,287.904,407.243,241.159,349.785,241.159
		L349.785,241.159z"/>
	<path fill="#FFFFFF" d="M349.785,404.075c-32.203,0-58.537-26.2-58.703-58.405c-0.021-4.175-3.412-7.543-7.582-7.543
		c-0.014,0-0.025,0-0.04,0c-4.187,0.021-7.563,3.433-7.542,7.621c0.209,40.524,33.345,73.492,73.867,73.492
		c40.735,0,73.875-33.141,73.875-73.876s-33.14-73.877-73.875-73.877c-27.357,0-52.361,15.052-65.254,39.282
		c-1.966,3.697-0.564,8.289,3.133,10.256c3.695,1.967,8.287,0.564,10.256-3.132c10.253-19.271,30.128-31.241,51.866-31.241
		c32.373,0,58.711,26.338,58.711,58.712S382.159,404.075,349.785,404.075L349.785,404.075z"/>
</g>
</svg>
