<?xml version="1.0" encoding="utf-8"?>
<!-- Generator: Adobe Illustrator 16.0.0, SVG Export Plug-In . SVG Version: 6.00 Build 0)  -->
<!DOCTYPE svg PUBLIC "-//W3C//DTD SVG 1.1//EN" "http://www.w3.org/Graphics/SVG/1.1/DTD/svg11.dtd">
<svg version="1.1" id="Layer_1" xmlns="http://www.w3.org/2000/svg" xmlns:xlink="http://www.w3.org/1999/xlink" x="0px" y="0px"
	 width="612px" height="792px" viewBox="0 0 612 792" enable-background="new 0 0 612 792" xml:space="preserve">
<g>
	<g>
		<path fill="#FFFFFF" d="M428.79,90H111.272c-30.683,0-55.636,24.926-55.636,55.637v500.728c0,30.712,24.953,55.637,55.637,55.637
			h389.454c30.684,0,55.637-24.925,55.637-55.637v-428.79L428.79,90z M222.546,493.363h-62.591
			c-11.517,0-20.864,9.347-20.864,20.864v41.727c0,11.489,9.347,20.864,20.864,20.864h62.591v41.727h-62.591
			c-34.494,0-62.591-28.067-62.591-62.591v-41.727c0-34.523,28.097-62.592,62.591-62.592h62.591V493.363z M368.592,493.363h-73.023
			c-5.758,0-10.432,4.674-10.432,10.432c0,5.759,4.673,10.433,10.432,10.433h20.864c28.765,0,52.159,23.395,52.159,52.159
			c0,28.735-23.395,52.158-52.159,52.158H243.41v-41.727h73.023c5.758,0,10.432-4.674,10.432-10.432
			c0-5.759-4.674-10.433-10.432-10.433h-20.864c-28.765,0-52.159-23.395-52.159-52.159c0-28.764,23.395-52.159,52.159-52.159h73.023
			V493.363z M514.637,493.363h-73.022c-5.758,0-10.432,4.674-10.432,10.432c0,5.759,4.674,10.433,10.432,10.433h20.864
			c28.764,0,52.158,23.395,52.158,52.159c0,28.735-23.395,52.158-52.158,52.158h-73.023v-41.727h73.023
			c5.758,0,10.432-4.674,10.432-10.432c0-5.759-4.674-10.433-10.432-10.433h-20.864c-28.765,0-52.159-23.395-52.159-52.159
			c0-28.764,23.395-52.159,52.159-52.159h73.022V493.363z M389.455,256.909V117.818l139.09,139.091H389.455z"/>
	</g>
</g>
</svg>
