<?xml version="1.0" encoding="utf-8"?>
<!-- Generator: Adobe Illustrator 16.0.0, SVG Export Plug-In . SVG Version: 6.00 Build 0)  -->
<!DOCTYPE svg PUBLIC "-//W3C//DTD SVG 1.1//EN" "http://www.w3.org/Graphics/SVG/1.1/DTD/svg11.dtd">
<svg version="1.1" id="Capa_1" xmlns="http://www.w3.org/2000/svg" xmlns:xlink="http://www.w3.org/1999/xlink" x="0px" y="0px"
	 width="612px" height="792px" viewBox="0 0 612 792" enable-background="new 0 0 612 792" xml:space="preserve">
<g>
	<g>
		<path fill="#FFFFFF" d="M500.674,279.488c21.443,0.636,43.092-7.147,59.464-23.52c31.508-31.507,31.519-82.587,0-114.106
			s-82.609-31.508-114.106,0c-16.372,16.372-24.155,38.021-23.52,59.453L311.186,90L181.524,219.661l13.047,13.048
			c20.888-4.141,43.376,1.884,59.566,18.063c25.778,25.778,25.778,67.577-0.011,93.354c-25.778,25.778-67.577,25.778-93.354,0
			c-16.19-16.191-22.204-38.678-18.063-59.555l-13.048-13.048L0,401.196l111.326,111.315c-21.444-0.636-43.092,7.159-59.464,23.531
			c-31.508,31.508-31.519,82.587,0,114.106c31.519,31.507,82.599,31.507,114.106-0.012c16.373-16.372,24.167-38.021,23.521-59.453
			L300.815,702l129.662-129.661l-13.06-13.06c-20.876,4.13-43.375-1.872-59.566-18.063c-25.777-25.778-25.777-67.576,0-93.366
			c25.79-25.777,67.588-25.777,93.366,0c16.19,16.191,22.204,38.679,18.063,59.566l13.048,13.048L612,390.804L500.674,279.488z"/>
	</g>
</g>
</svg>
