<?xml version="1.0" encoding="utf-8"?>
<!-- Generator: Adobe Illustrator 16.0.0, SVG Export Plug-In . SVG Version: 6.00 Build 0)  -->
<!DOCTYPE svg PUBLIC "-//W3C//DTD SVG 1.1//EN" "http://www.w3.org/Graphics/SVG/1.1/DTD/svg11.dtd">
<svg version="1.1" id="Layer_1" xmlns="http://www.w3.org/2000/svg" xmlns:xlink="http://www.w3.org/1999/xlink" x="0px" y="0px"
	 width="512px" height="512px" viewBox="0 0 512 512" enable-background="new 0 0 512 512" xml:space="preserve">
<path fill="#FFFFFF" d="M447.718,376.27v-51.521H273.021v-32.959h111.043c37.598,0,68.185-30.294,68.185-67.531
	c0-33.269-24.592-61.131-56.722-66.561c-6.615-36.092-38.335-63.018-76.443-63.018c-8.618,0-17.202,1.435-25.318,4.199
	c-17.633-28.048-48.988-45.627-82.833-45.627c-53.759,0-97.495,43.315-97.495,96.557c0,3.678,0.211,7.353,0.629,10.998
	c-26.556,9.521-44.793,34.55-44.793,63.452c0,37.237,30.588,67.529,68.185,67.529h111.042v32.962H73.804v51.521
	c3.958-0.828,8.059-1.275,12.26-1.275c4.205,0,8.305,0.446,12.26,1.275v-27.239H248.5v27.239c3.959-0.831,8.056-1.278,12.26-1.278
	s8.302,0.445,12.261,1.278v-27.239h150.175v27.239c3.957-0.828,8.056-1.275,12.26-1.275
	C439.659,374.994,443.762,375.441,447.718,376.27z"/>
<path fill="#FFFFFF" d="M295.314,433.501c0,18.9-15.47,34.221-34.554,34.221c-19.083,0-34.554-15.32-34.554-34.221
	s15.47-34.22,34.554-34.22C279.845,399.281,295.314,414.601,295.314,433.501z"/>
<path fill="#FFFFFF" d="M120.617,433.501c0,18.9-15.47,34.221-34.553,34.221c-19.083,0-34.554-15.32-34.554-34.221
	s15.47-34.22,34.554-34.22C105.147,399.281,120.617,414.601,120.617,433.501z"/>
<path fill="#FFFFFF" d="M470.011,433.501c0,18.9-15.47,34.221-34.554,34.221c-19.083,0-34.554-15.32-34.554-34.221
	s15.471-34.22,34.554-34.22C454.541,399.281,470.011,414.601,470.011,433.501z"/>
</svg>
