<?xml version="1.0" encoding="utf-8"?>
<!-- Generator: Adobe Illustrator 16.0.0, SVG Export Plug-In . SVG Version: 6.00 Build 0)  -->
<!DOCTYPE svg PUBLIC "-//W3C//DTD SVG 1.1//EN" "http://www.w3.org/Graphics/SVG/1.1/DTD/svg11.dtd">
<svg version="1.1" id="Capa_1" xmlns="http://www.w3.org/2000/svg" xmlns:xlink="http://www.w3.org/1999/xlink" x="0px" y="0px"
	 width="612px" height="792px" viewBox="0 0 612 792" enable-background="new 0 0 612 792" xml:space="preserve">
<g>
	<g>
		<path fill="#FFFFFF" d="M512.902,280.249H274.965l-47.329-55.436c-1.591-1.886-3.978-2.944-6.466-2.868H29.204
			c-29.309,0.211-52.954,23.686-52.954,52.568v340.962c0.036,28.982,23.868,52.47,53.277,52.505h483.375
			c29.409-0.035,53.241-23.522,53.277-52.505V332.753C566.144,303.771,542.312,280.285,512.902,280.249z"/>
	</g>
</g>
<g>
	<g>
		<path fill="#FFFFFF" d="M582.797,212.324H344.794l-47.328-55.436c-1.593-1.886-3.978-2.944-6.466-2.868H99.098
			c-26.594,0.044-49.081,19.404-52.695,45.369h175.026c9.178-0.022,17.893,3.969,23.794,10.896l40.41,47.344h227.27
			c42.035,0.07,76.095,33.635,76.165,75.062v266.855c26.652-3.276,46.663-25.59,46.683-52.06V264.764
			C635.681,235.931,612.053,212.536,582.797,212.324z"/>
	</g>
</g>
</svg>
