<?xml version="1.0" encoding="utf-8"?>
<!-- Generator: Adobe Illustrator 16.0.0, SVG Export Plug-In . SVG Version: 6.00 Build 0)  -->
<!DOCTYPE svg PUBLIC "-//W3C//DTD SVG 1.1//EN" "http://www.w3.org/Graphics/SVG/1.1/DTD/svg11.dtd">
<svg version="1.1" id="Layer_1" xmlns="http://www.w3.org/2000/svg" xmlns:xlink="http://www.w3.org/1999/xlink" x="0px" y="0px"
	 width="494px" height="494px" viewBox="0 0 494 494" enable-background="new 0 0 494 494" xml:space="preserve">
<path fill="#FFFFFF" d="M491,185.98l-66-54.883V52.992c-0.141-4.496-3.813-8.074-8.313-8.094h-95.301l-38.699-32.031
	c-20.699-17.148-50.664-17.156-71.375-0.023l-38.703,32.055H76.113c-4.457,0.035-8.066,3.633-8.113,8.094v79.391L3.113,185.965
	c-1.742,1.488-2.77,3.645-2.828,5.934H0v215.93c0.152,30.953,25.246,55.988,56.199,56.07h381.602
	c30.953-0.082,56.047-25.117,56.199-56.07v-215.93h-0.285C493.699,189.629,492.711,187.473,491,185.98z M473.121,192.008
	L425,227.906v-75.98L473.121,192.008z M221.523,25.184c14.773-12.238,36.164-12.25,50.953-0.023l23.84,19.738h-98.633
	L221.523,25.184z M409,60.898V239.84l-98.66,73.484l-0.379-142.859c-0.02-1.656-0.547-3.266-1.516-4.609l-54.898-77.418
	c-1.504-2.117-3.938-3.375-6.535-3.375c-2.594,0-5.031,1.258-6.531,3.375l-54.879,77.418c-0.957,1.348-1.473,2.957-1.477,4.609
	l-0.359,142.859L84,238.945V60.898H409z M207.602,162.898L247,107.316l39.398,55.582H207.602z M200.102,178.898h17.207
	l-0.348,159.359l-17.172-12.699L200.102,178.898z M233.309,178.898h27.379l0.371,169.301c-9.059,3.398-19.035,3.438-28.121,0.105
	L233.309,178.898z M277.039,338.258l-0.348-159.359h17.207l0.313,146.656L277.039,338.258z M68,153.164v73.848l-46.898-34.988
	L68,153.164z M437.801,447.898H56.199c-22.121-0.07-40.059-17.949-40.199-40.07V208.305l197.426,147.168
	c19.961,14.688,47.152,14.688,67.113,0L478,208.305v199.523C477.859,429.949,459.922,447.828,437.801,447.898z"/>
</svg>
