<?xml version="1.0" encoding="utf-8"?>
<!-- Generator: Adobe Illustrator 16.0.0, SVG Export Plug-In . SVG Version: 6.00 Build 0)  -->
<!DOCTYPE svg PUBLIC "-//W3C//DTD SVG 1.1//EN" "http://www.w3.org/Graphics/SVG/1.1/DTD/svg11.dtd">
<svg version="1.1" id="Layer_1" xmlns="http://www.w3.org/2000/svg" xmlns:xlink="http://www.w3.org/1999/xlink" x="0px" y="0px"
	 width="612px" height="792px" viewBox="0 0 612 792" enable-background="new 0 0 612 792" xml:space="preserve">
<g>
	<g>
		<path fill="#FFFFFF" d="M428.79,90H111.272c-30.683,0-55.636,24.926-55.636,55.637v500.728c0,30.712,24.953,55.637,55.637,55.637
			h389.454c30.684,0,55.637-24.925,55.637-55.637v-428.79L428.79,90z M389.455,117.818l139.09,139.091h-139.09V117.818z
			 M184.295,618.545h-34.773v-52.158H114.75v52.158H79.977v-139.09h34.773v52.159h34.773v-52.159h34.773v139.09H184.295z
			 M306.001,514.228h-34.773v104.317h-34.773V514.228h-34.773v-34.773H306v34.773H306.001z M392.932,618.545v-64.26l-2.948,4.367
			c-6.426,9.681-22.477,9.681-28.932,0l-2.894-4.367v64.26h-34.771V496.868c0-7.678,5.007-14.438,12.324-16.663
			c7.316-2.226,15.271,0.641,19.501,7.01l20.334,30.434l20.279-30.461c4.256-6.369,12.212-9.235,19.501-7.01
			c7.344,2.226,12.352,8.985,12.352,16.663v121.704H392.932L392.932,618.545z M531.996,618.545h-86.904v-139.09h34.772v104.318
			h52.132V618.545z"/>
	</g>
</g>
</svg>
