<?xml version="1.0" encoding="utf-8"?>
<!-- Generator: Adobe Illustrator 16.0.0, SVG Export Plug-In . SVG Version: 6.00 Build 0)  -->
<!DOCTYPE svg PUBLIC "-//W3C//DTD SVG 1.1//EN" "http://www.w3.org/Graphics/SVG/1.1/DTD/svg11.dtd">
<svg version="1.1" id="bold" xmlns="http://www.w3.org/2000/svg" xmlns:xlink="http://www.w3.org/1999/xlink" x="0px" y="0px"
	 width="512px" height="512px" viewBox="0 0 512 512" enable-background="new 0 0 512 512" xml:space="preserve">
<path fill="#FFFFFF" d="M410.667,0H101.333C68.971,0,42.667,26.304,42.667,58.667v394.667c0,32.363,26.304,58.667,58.667,58.667
	h309.333c32.362,0,58.666-26.304,58.666-58.667V58.667C469.333,26.304,443.029,0,410.667,0z M176,330.666h-10.667v80.001
	c0,8.832-7.168,16-16,16s-16-7.168-16-16v-80.001h-10.667c-8.832,0-16-7.168-16-16s7.168-16,16-16H176c8.832,0,16,7.168,16,16
	S184.832,330.666,176,330.666z M296.661,402.901c4.288,7.723,1.515,17.472-6.229,21.76c-2.453,1.365-5.119,2.006-7.766,2.006
	c-5.609,0-11.071-2.966-13.994-8.235L256,395.627l-12.672,22.826c-2.923,5.248-8.384,8.214-13.995,8.214
	c-2.646,0-5.312-0.641-7.766-2.006c-7.723-4.288-10.517-14.037-6.229-21.76l22.357-40.235l-22.357-40.234
	c-4.288-7.723-1.515-17.472,6.229-21.76c7.702-4.309,17.451-1.515,21.76,6.229L256,329.707l12.672-22.827
	c4.288-7.723,14.059-10.517,21.76-6.229c7.723,4.288,10.518,14.037,6.229,21.76l-22.356,40.256L296.661,402.901z M389.333,330.666
	h-10.666v80.001c0,8.832-7.168,16-16,16s-16-7.168-16-16v-80.001H336c-8.832,0-16-7.168-16-16s7.168-16,16-16h53.333
	c8.832,0,16,7.168,16,16S398.165,330.666,389.333,330.666z"/>
</svg>
