<?xml version="1.0" encoding="utf-8"?>
<!-- Generator: Adobe Illustrator 16.0.0, SVG Export Plug-In . SVG Version: 6.00 Build 0)  -->
<!DOCTYPE svg PUBLIC "-//W3C//DTD SVG 1.1//EN" "http://www.w3.org/Graphics/SVG/1.1/DTD/svg11.dtd">
<svg version="1.1" id="Layer_1" xmlns="http://www.w3.org/2000/svg" xmlns:xlink="http://www.w3.org/1999/xlink" x="0px" y="0px"
	 width="612px" height="792px" viewBox="0 0 612 792" enable-background="new 0 0 612 792" xml:space="preserve">
<g>
	<g>
		<g>
			<path fill="#FFFFFF" d="M308.254,494.505c-11.823,0-21.448,9.597-21.448,21.42v42.84c0,11.823,9.625,21.447,21.448,21.447
				s21.421-9.624,21.421-21.447v-42.84C329.702,504.129,320.076,494.505,308.254,494.505z"/>
			<path fill="#FFFFFF" d="M428.79,90H111.272c-30.683,0-55.636,24.926-55.636,55.637v500.728c0,30.712,24.953,55.637,55.637,55.637
				h389.454c30.684,0,55.637-24.925,55.637-55.637v-428.79L428.79,90z M222.546,493.363h-73.022
				c-5.758,0-10.432,4.674-10.432,10.459c0,5.731,4.674,10.405,10.432,10.405h20.863c28.765,0,52.159,23.423,52.159,52.187
				c0,28.735-23.395,52.131-52.159,52.131H97.364v-41.727h73.022c5.759,0,10.432-4.674,10.432-10.404
				c0-5.786-4.673-10.46-10.432-10.46h-20.863c-28.765,0-52.159-23.395-52.159-52.132c0-28.764,23.395-52.187,52.159-52.187h73.022
				V493.363z M357.408,638.24l-21.587-21.587c-8.373,3.979-17.636,6.398-27.54,6.398c-35.468,0-64.287-28.819-64.287-64.26v-42.84
				c0-35.44,28.819-64.315,64.287-64.315c35.441,0,64.287,28.848,64.287,64.315v42.84c0,9.903-2.447,19.194-6.453,27.567
				l21.588,21.559L357.408,638.24z M514.637,618.545H410.319V451.636h41.727v125.183h62.591V618.545z M389.455,256.909V117.818
				l139.09,139.091H389.455z"/>
		</g>
	</g>
</g>
</svg>
