<?xml version="1.0" encoding="utf-8"?>
<!-- Generator: Adobe Illustrator 16.0.0, SVG Export Plug-In . SVG Version: 6.00 Build 0)  -->
<!DOCTYPE svg PUBLIC "-//W3C//DTD SVG 1.1//EN" "http://www.w3.org/Graphics/SVG/1.1/DTD/svg11.dtd">
<svg version="1.1" id="Capa_1" xmlns="http://www.w3.org/2000/svg" xmlns:xlink="http://www.w3.org/1999/xlink" x="0px" y="0px"
	 width="612px" height="792px" viewBox="0 0 612 792" enable-background="new 0 0 612 792" xml:space="preserve">
<g>
	<g>
		<path fill="#FFFFFF" d="M2.753,300.446L0.125,111.089C0,101.453,7.885,93.568,17.521,93.693l189.356,2.753
			c15.144,0.25,22.653,18.522,11.89,29.286l-52.689,52.689l87.607,87.607l-81.35,81.349l-87.607-87.607l-52.689,52.689
			C21.401,323.099,3.004,315.59,2.753,300.446z"/>
		<path fill="#FFFFFF" d="M527.27,260.898l52.69,52.689c10.763,10.763,29.035,3.254,29.285-11.89l2.754-189.357
			c0.125-9.637-7.76-17.521-17.396-17.396l-189.356,2.753c-15.144,0.25-22.653,18.522-11.89,29.286l52.564,52.439l-87.607,87.607
			l81.35,81.35L527.27,260.898z"/>
		<path fill="#FFFFFF" d="M393.231,666.269c-10.764,10.764-3.254,29.036,11.89,29.286l189.356,2.753
			c9.637,0.126,17.521-7.759,17.396-17.396l-2.753-189.357c-0.25-15.144-18.522-22.652-29.286-11.89l-52.689,52.689l-87.606-87.606
			l-81.35,81.35l87.606,87.606L393.231,666.269z"/>
		<path fill="#FFFFFF" d="M17.521,697.057l189.356-2.754c15.144-0.25,22.653-18.522,11.89-29.285l-52.689-52.564l87.607-87.607
			l-81.35-81.35l-87.607,87.607l-52.689-52.689c-10.763-10.764-29.035-3.254-29.286,11.89L0,679.66
			C0,689.297,7.885,697.182,17.521,697.057z"/>
	</g>
</g>
</svg>
