<?xml version="1.0" encoding="utf-8"?>
<!-- Generator: Adobe Illustrator 16.0.0, SVG Export Plug-In . SVG Version: 6.00 Build 0)  -->
<!DOCTYPE svg PUBLIC "-//W3C//DTD SVG 1.1//EN" "http://www.w3.org/Graphics/SVG/1.1/DTD/svg11.dtd">
<svg version="1.1" id="Layer_1" xmlns="http://www.w3.org/2000/svg" xmlns:xlink="http://www.w3.org/1999/xlink" x="0px" y="0px"
	 width="512px" height="512px" viewBox="0 0 512 512" enable-background="new 0 0 512 512" xml:space="preserve">
<g id="_15_Chat">
	<path fill="#FFFFFF" d="M267.496,180.196H65.62c-11.259,0-20.386-9.479-20.386-21.171s9.127-21.17,20.386-21.17H267.52
		c11.26,0,20.387,9.478,20.387,21.17s-9.127,21.171-20.387,21.171H267.496z"/>
	<path fill="#FFFFFF" d="M442.349,180.196h-51.029c-11.259,0-20.386-9.479-20.386-21.171s9.127-21.17,20.386-21.17h51.029
		c11.259,0,20.386,9.478,20.386,21.17S453.607,180.196,442.349,180.196z"/>
	<path fill="#FFFFFF" d="M442.349,375.712H240.473c-11.258,0-20.386-9.479-20.386-21.172c0-11.69,9.127-21.169,20.386-21.169
		h201.876c11.259,0,20.386,9.479,20.386,21.169C462.734,366.232,453.607,375.712,442.349,375.712z"/>
	<path fill="#FFFFFF" d="M116.65,375.712H65.62c-11.259,0-20.386-9.479-20.386-21.172c0-11.69,9.127-21.169,20.386-21.169h51.03
		c11.258,0,20.386,9.479,20.386,21.169C137.036,366.232,127.908,375.712,116.65,375.712z"/>
	<path fill="#FFFFFF" d="M178.565,438.445c-45.454,0.004-82.305-38.258-82.309-85.462c-0.004-47.205,36.839-85.475,82.293-85.479
		c45.454-0.004,82.304,38.26,82.308,85.463c0,0.004,0,0.006,0,0.008C260.826,400.163,224.003,438.408,178.565,438.445z
		 M178.565,309.854c-22.936-0.004-41.533,19.302-41.538,43.121c-0.004,23.82,18.585,43.134,41.522,43.138
		c22.936,0.004,41.533-19.301,41.538-43.121c0-0.006,0-0.012,0-0.017C220.051,329.176,201.482,309.891,178.565,309.854z"/>
	<path fill="#FFFFFF" d="M329.403,244.496c-45.453,0-82.302-38.267-82.302-85.471s36.849-85.47,82.302-85.47
		c45.454,0,82.302,38.266,82.302,85.47l0,0C411.674,206.216,374.844,244.463,329.403,244.496z M329.403,115.905
		c-22.936,0-41.529,19.31-41.529,43.129s18.594,43.129,41.529,43.129c22.937,0,41.53-19.31,41.53-43.129c0-0.003,0-0.006,0-0.009
		C370.897,135.223,352.323,115.938,329.403,115.905z"/>
</g>
</svg>
