<?xml version="1.0" encoding="utf-8"?>
<!-- Generator: Adobe Illustrator 16.0.0, SVG Export Plug-In . SVG Version: 6.00 Build 0)  -->
<!DOCTYPE svg PUBLIC "-//W3C//DTD SVG 1.1//EN" "http://www.w3.org/Graphics/SVG/1.1/DTD/svg11.dtd">
<svg version="1.1" id="Capa_1" xmlns="http://www.w3.org/2000/svg" xmlns:xlink="http://www.w3.org/1999/xlink" x="0px" y="0px"
	 width="612px" height="792px" viewBox="0 0 612 792" enable-background="new 0 0 612 792" xml:space="preserve">
<g>
	<g>
		<path fill="#FFFFFF" d="M522.409,179.609c-119.531-119.417-313.269-119.417-432.761,0c-119.531,119.417-119.531,313.269,0,432.761
			c59.638,59.638,137.794,89.486,215.969,89.581h0.85c78.181-0.114,156.325-29.981,215.942-89.581
			C641.863,492.962,641.863,299.026,522.409,179.609z M293.13,642.168c-33.228,0-60.347-26.838-60.347-59.823
			c0-33.866,26.518-60.385,60.347-60.385c32.984,0,59.822,27.073,59.822,60.385C352.954,614.767,325.56,642.168,293.13,642.168z
			 M335.183,432.417v33.151c0,16.135-6.306,22.448-22.485,22.448h-43.254c-16.173,0-22.403-6.306-22.403-22.448v-74.091
			c0-18.729,19.17-24.321,36.104-29.234c4.153-1.24,8.428-2.48,12.581-3.873c21.925-7.904,35.465-17.732,35.465-42.212
			c0-7.949,0-32.071-39.223-32.071c-24.198,0-46.167,9.304-59.267,14.818c-7.432,3.074-11.099,4.633-14.856,4.633
			c-7.547,0-14.736-6.071-15.815-12.301l-15.055-39.375c-2.236-4.557-2.236-8.147-2.236-11.022
			c0-28.999,90.342-45.011,120.292-45.011c75.44,0,126.119,48.603,126.119,120.93C431.192,394.952,372.443,419.477,335.183,432.417z
			"/>
	</g>
</g>
</svg>
