<?xml version="1.0" encoding="utf-8"?>
<!-- Generator: Adobe Illustrator 16.0.0, SVG Export Plug-In . SVG Version: 6.00 Build 0)  -->
<!DOCTYPE svg PUBLIC "-//W3C//DTD SVG 1.1//EN" "http://www.w3.org/Graphics/SVG/1.1/DTD/svg11.dtd">
<svg version="1.1" id="Layer_1" xmlns="http://www.w3.org/2000/svg" xmlns:xlink="http://www.w3.org/1999/xlink" x="0px" y="0px"
	 width="512px" height="512px" viewBox="0 0 512 512" enable-background="new 0 0 512 512" xml:space="preserve">
<g>
	<path fill="#FFFFFF" d="M445.938,412.167V99.833c0-18.907-15.383-34.289-34.288-34.289H100.352
		c-18.907,0-34.289,15.382-34.289,34.289v312.335c0,18.907,15.382,34.289,34.289,34.289h28.737c4.142,0,7.5-3.358,7.5-7.5
		s-3.358-7.5-7.5-7.5h-28.737c-10.636,0-19.289-8.653-19.289-19.289V99.833c0-10.636,8.653-19.289,19.289-19.289h311.296
		c10.636,0,19.287,8.653,19.287,19.289v312.335c0,10.636-8.651,19.289-19.287,19.289H163.701c-4.142,0-7.5,3.358-7.5,7.5
		s3.358,7.5,7.5,7.5h247.947C430.555,446.457,445.938,431.075,445.938,412.167L445.938,412.167z"/>
	<path fill="#FFFFFF" d="M408.46,142.042c4.143,0,7.5-3.358,7.5-7.5v-31.436c0-4.142-3.357-7.5-7.5-7.5H103.541
		c-4.142,0-7.5,3.358-7.5,7.5V363.8c0,4.142,3.358,7.5,7.5,7.5H408.46c4.143,0,7.5-3.358,7.5-7.5V169.237c0-4.142-3.357-7.5-7.5-7.5
		s-7.5,3.358-7.5,7.5v131.699l-65.091-65.091c-1.407-1.407-3.314-2.197-5.304-2.197c-1.99,0-3.896,0.79-5.305,2.197l-43.938,43.94
		l-67.71-67.709c-2.929-2.929-7.678-2.929-10.606,0l-63.438,63.438H111.04V110.606h289.92v23.936
		C400.96,138.684,404.317,142.042,408.46,142.042L408.46,142.042z M142.676,290.514c1.989,0,3.897-0.791,5.303-2.197l60.331-60.332
		l67.709,67.708c1.406,1.408,3.313,2.197,5.303,2.197c1.99,0,3.896-0.789,5.305-2.197l43.938-43.939l70.396,70.395V356.3H111.041
		v-65.786H142.676z"/>
	<path fill="#FFFFFF" d="M241.177,179.109c0,21.735,17.683,39.418,39.419,39.418c21.734,0,39.418-17.683,39.418-39.418
		c0-21.736-17.684-39.419-39.418-39.419C258.859,139.69,241.177,157.373,241.177,179.109z M305.016,179.109
		c0,13.464-10.955,24.418-24.42,24.418c-13.464,0-24.417-10.954-24.417-24.418c0-13.465,10.954-24.419,24.417-24.419
		C294.061,154.69,305.016,165.644,305.016,179.109z"/>
	<path fill="#FFFFFF" d="M22.494,133.308c12.403,0,22.494-10.09,22.494-22.492V53.622c0-4.763,3.876-8.638,8.64-8.638h57.201
		c12.403,0,22.494-10.09,22.494-22.492C133.322,10.09,123.231,0,110.829,0H53.627C24.057,0,0,24.055,0,53.622v57.194
		C0,123.218,10.091,133.308,22.494,133.308z M15,53.622C15,32.326,32.328,15,53.627,15h57.201c4.132,0,7.494,3.361,7.494,7.492
		c0,4.131-3.362,7.492-7.494,7.492H53.627c-13.035,0-23.64,10.604-23.64,23.638v57.194c0,4.131-3.362,7.492-7.494,7.492
		c-4.132,0-7.494-3.361-7.494-7.492L15,53.622L15,53.622z"/>
	<path fill="#FFFFFF" d="M458.372,0h-57.2c-12.403,0-22.494,10.09-22.494,22.492c0,12.402,10.091,22.492,22.494,22.492h57.2
		c4.765,0,8.641,3.875,8.641,8.638v57.194c0,12.402,10.091,22.492,22.493,22.492c12.403,0,22.494-10.09,22.494-22.492V53.622
		C512,24.055,487.942,0,458.372,0z M497,110.816c0,4.131-3.362,7.492-7.494,7.492s-7.493-3.361-7.493-7.492V53.622
		c0-13.034-10.604-23.638-23.641-23.638h-57.2c-4.132,0-7.494-3.361-7.494-7.492c0-4.131,3.362-7.492,7.494-7.492h57.2
		C479.672,15,497,32.326,497,53.622V110.816z"/>
	<path fill="#FFFFFF" d="M110.829,467.016H53.627c-4.764,0-8.64-3.875-8.64-8.638v-57.194c0-12.401-10.091-22.492-22.494-22.492
		C10.091,378.691,0,388.782,0,401.184v57.194C0,487.945,24.057,512,53.627,512h57.201c12.403,0,22.494-10.09,22.494-22.492
		C133.322,477.106,123.231,467.016,110.829,467.016z M110.829,497H53.627C32.328,497,15,479.674,15,458.378v-57.194
		c0-4.131,3.362-7.492,7.494-7.492c4.132,0,7.494,3.361,7.494,7.492v57.194c0,13.034,10.604,23.638,23.64,23.638h57.201
		c4.132,0,7.494,3.361,7.494,7.492C118.322,493.639,114.96,497,110.829,497z"/>
	<path fill="#FFFFFF" d="M489.506,378.691c-12.402,0-22.493,10.091-22.493,22.492v57.194c0,4.763-3.876,8.638-8.641,8.638h-57.2
		c-12.403,0-22.494,10.091-22.494,22.492c0,12.402,10.091,22.492,22.494,22.492h57.2c29.57,0,53.628-24.055,53.628-53.622v-57.194
		C512,388.782,501.909,378.691,489.506,378.691z M497,458.378C497,479.674,479.672,497,458.372,497h-57.2
		c-4.132,0-7.494-3.361-7.494-7.492s3.362-7.492,7.494-7.492h57.2c13.035,0,23.641-10.604,23.641-23.638v-57.194
		c0-4.131,3.361-7.492,7.493-7.492s7.494,3.361,7.494,7.492V458.378z"/>
</g>
</svg>
