<?xml version="1.0" encoding="utf-8"?>
<!-- Generator: Adobe Illustrator 16.0.0, SVG Export Plug-In . SVG Version: 6.00 Build 0)  -->
<!DOCTYPE svg PUBLIC "-//W3C//DTD SVG 1.1//EN" "http://www.w3.org/Graphics/SVG/1.1/DTD/svg11.dtd">
<svg version="1.1" id="Capa_1" xmlns="http://www.w3.org/2000/svg" xmlns:xlink="http://www.w3.org/1999/xlink" x="0px" y="0px"
	 width="612px" height="792px" viewBox="0 0 612 792" enable-background="new 0 0 612 792" xml:space="preserve">
<g>
	<g>
		<path fill="#FFFFFF" d="M0,485.648v134.228c0,6.435,3.447,12.375,9.035,15.566L126.703,702V557.367L0,485.648z"/>
	</g>
</g>
<g>
	<g>
		<polygon fill="#FFFFFF" points="162.563,557.367 162.563,702 288.07,630.281 288.07,485.648 		"/>
	</g>
</g>
<g>
	<g>
		<polygon fill="#FFFFFF" points="323.93,485.648 323.93,630.281 449.438,702 449.438,557.367 		"/>
	</g>
</g>
<g>
	<g>
		<path fill="#FFFFFF" d="M485.297,557.367V702l117.668-66.558c5.588-3.191,9.035-9.131,9.035-15.565V485.648L485.297,557.367z"/>
	</g>
</g>
<g>
	<g>
		<polygon fill="#FFFFFF" points="467.367,378.07 329.005,447.25 467.367,526.32 606.925,447.25 		"/>
	</g>
</g>
<g>
	<g>
		<path fill="#FFFFFF" d="M314.02,91.892c-5.049-2.523-10.99-2.523-16.039,0L167.638,159.18L306,238.25l138.362-79.071
			L314.02,91.892z"/>
	</g>
</g>
<g>
	<g>
		<polygon fill="#FFFFFF" points="162.563,197.578 162.563,346.938 288.07,409.692 288.07,269.297 		"/>
	</g>
</g>
<g>
	<g>
		<polygon fill="#FFFFFF" points="144.633,378.07 5.075,447.25 144.633,526.32 282.995,447.25 		"/>
	</g>
</g>
<g>
	<g>
		<polygon fill="#FFFFFF" points="323.93,269.297 323.93,409.692 449.438,346.938 449.438,197.578 		"/>
	</g>
</g>
</svg>
