<?xml version="1.0" encoding="utf-8"?>
<!-- Generator: Adobe Illustrator 16.0.0, SVG Export Plug-In . SVG Version: 6.00 Build 0)  -->
<!DOCTYPE svg PUBLIC "-//W3C//DTD SVG 1.1//EN" "http://www.w3.org/Graphics/SVG/1.1/DTD/svg11.dtd">
<svg version="1.1" id="Layer_1" xmlns="http://www.w3.org/2000/svg" xmlns:xlink="http://www.w3.org/1999/xlink" x="0px" y="0px"
	 width="612px" height="792px" viewBox="0 0 612 792" enable-background="new 0 0 612 792" xml:space="preserve">
<g>
	<g>
		<path fill="#FFFFFF" d="M428.79,90H111.272c-30.683,0-55.636,24.926-55.636,55.637v500.728c0,30.712,24.953,55.637,55.637,55.637
			h389.454c30.684,0,55.637-24.925,55.637-55.637v-428.79L428.79,90z M278.182,535.091c0,46.011-37.444,83.454-83.455,83.454
			s-83.455-37.443-83.455-83.454h55.637c0,15.328,12.462,27.817,27.818,27.817c15.355,0,27.818-12.49,27.818-27.817v-139.09h55.637
			V535.091z M472.91,451.636h-97.364c-7.65,0-13.91,6.232-13.91,13.91s6.26,13.909,13.91,13.909h27.817
			c38.362,0,69.545,31.185,69.545,69.545c0,38.333-31.185,69.545-69.545,69.545H306v-55.637h97.364
			c7.65,0.002,13.91-6.23,13.91-13.908s-6.26-13.909-13.91-13.909h-27.817c-38.362,0-69.545-31.212-69.545-69.545
			c0-38.362,31.185-69.545,69.545-69.545h97.364V451.636z M389.455,256.909V117.818l139.09,139.091H389.455z"/>
	</g>
</g>
</svg>
