<?xml version="1.0" encoding="utf-8"?>
<!-- Generator: Adobe Illustrator 16.0.0, SVG Export Plug-In . SVG Version: 6.00 Build 0)  -->
<!DOCTYPE svg PUBLIC "-//W3C//DTD SVG 1.1//EN" "http://www.w3.org/Graphics/SVG/1.1/DTD/svg11.dtd">
<svg version="1.1" id="Layer_1" xmlns="http://www.w3.org/2000/svg" xmlns:xlink="http://www.w3.org/1999/xlink" x="0px" y="0px"
	 width="512px" height="512px" viewBox="0 0 512 512" enable-background="new 0 0 512 512" xml:space="preserve">
<path fill="#FFFFFF" d="M512,185.785c0-0.066,0-0.133,0-0.199c-0.059-6.191-2.73-12.098-7.352-16.227l-50.516-45.102
	c-6.184-5.52-15.66-4.98-21.184,1.199c-5.516,6.18-4.977,15.66,1.199,21.18l27.051,24.148H203.426
	c-7.266-49.41-49.863-87.457-101.164-87.457C45.875,83.328,0,129.289,0,185.785s45.875,102.457,102.262,102.457
	c51.301,0,93.898-38.047,101.164-87.457h257.773l-27.047,24.152c-6.18,5.516-6.719,15-1.199,21.176
	c2.961,3.32,7.066,5.012,11.191,5.012c3.559,0,7.125-1.258,9.988-3.813l50.516-45.102c4.621-4.129,7.293-10.031,7.352-16.227
	c0-0.063,0-0.129,0-0.191C512,185.789,512,185.789,512,185.785z M102.262,258.242C62.414,258.242,30,225.738,30,185.785
	s32.414-72.457,72.262-72.457c34.715,0,63.793,24.68,70.703,57.457h-48.152c-8.285,0-15,6.715-15,15s6.715,15,15,15h48.152
	C166.055,233.566,136.977,258.242,102.262,258.242z"/>
<path fill="#FFFFFF" d="M300.938,64.992c0,8.285,6.715,15,15,15h163.184c8.285,0,15-6.715,15-15s-6.715-15-15-15H315.938
	C307.652,49.992,300.938,56.707,300.938,64.992z"/>
<path fill="#FFFFFF" d="M207.363,30h126.516c8.281,0,15-6.715,15-15s-6.719-15-15-15H207.363c-8.281,0-15,6.715-15,15
	S199.082,30,207.363,30z"/>
<path fill="#FFFFFF" d="M383.602,30H407c8.285,0,15-6.715,15-15s-6.715-15-15-15h-23.398c-8.285,0-15,6.715-15,15
	S375.316,30,383.602,30z"/>
<path fill="#FFFFFF" d="M214.316,78.984c-8.285,0-15,6.719-15,15c0,8.285,6.715,15,15,15h23.398c8.285,0,15-6.715,15-15
	c0-8.281-6.715-15-15-15H214.316z"/>
<path fill="#FFFFFF" d="M257.75,258.961c8.285,0,15-6.715,15-15s-6.715-15-15-15h-23.398c-8.285,0-15,6.715-15,15s6.715,15,15,15
	H257.75z"/>
<path fill="#FFFFFF" d="M257.75,351.004H94.895c-8.285,0-15,6.719-15,15c0,8.285,6.715,15,15,15H257.75c8.285,0,15-6.715,15-15
	C272.75,357.723,266.035,351.004,257.75,351.004z"/>
<path fill="#FFFFFF" d="M366.648,301.012H240.137c-8.285,0-15,6.719-15,15c0,8.285,6.715,15,15,15h126.512c8.285,0,15-6.715,15-15
	C381.648,307.73,374.934,301.012,366.648,301.012z"/>
<path fill="#FFFFFF" d="M190.414,331.012c8.285,0,15-6.715,15-15c0-8.281-6.715-15-15-15h-23.398c-8.285,0-15,6.719-15,15
	c0,8.285,6.715,15,15,15H190.414z"/>
<path fill="#FFFFFF" d="M359.699,380h-23.398c-8.285,0-15,6.715-15,15s6.715,15,15,15h23.398c8.281,0,15-6.715,15-15
	S367.98,380,359.699,380z"/>
</svg>
