<?xml version="1.0" encoding="utf-8"?>
<!-- Generator: Adobe Illustrator 16.0.0, SVG Export Plug-In . SVG Version: 6.00 Build 0)  -->
<!DOCTYPE svg PUBLIC "-//W3C//DTD SVG 1.1//EN" "http://www.w3.org/Graphics/SVG/1.1/DTD/svg11.dtd">
<svg version="1.1" id="Capa_1" xmlns="http://www.w3.org/2000/svg" xmlns:xlink="http://www.w3.org/1999/xlink" x="0px" y="0px"
	 width="612px" height="792px" viewBox="0 0 612 792" enable-background="new 0 0 612 792" xml:space="preserve">
<g>
	<path fill="#FFFFFF" d="M355.846,411.304c-3.174-3.174-7.402-4.92-11.906-4.92c-4.505,0-8.732,1.747-11.905,4.92l-54.1,54.1
		l-41.09-41.091l54.1-54.1c6.562-6.565,6.562-17.248-0.001-23.813l-18.733-18.733c-3.174-3.174-7.402-4.92-11.906-4.92
		s-8.734,1.748-11.905,4.922L194.3,381.768l-30.74-30.74c-3.174-3.174-7.402-4.92-11.906-4.92c-4.504,0-8.732,1.748-11.905,4.92
		l-27.017,27.012c-6.565,6.565-6.565,17.248,0,23.814l6.402,6.402c-2.688,1.828-5.225,3.915-7.57,6.261l-78.6,78.6
		c-9.827,9.825-15.237,22.934-15.237,36.909c0,13.978,5.412,27.086,15.237,36.909l30.213,30.213L8.631,651.695
		c-11.509,11.509-11.509,30.166,0,41.674c5.753,5.753,13.295,8.629,20.835,8.629c7.541,0,15.083-2.876,20.836-8.629l54.548-54.548
		l30.462,30.462c9.824,9.825,22.932,15.235,36.91,15.235s27.086-5.41,36.91-15.235l78.6-78.6c2.347-2.346,4.434-4.885,6.262-7.572
		l6.402,6.402c3.174,3.174,7.402,4.922,11.904,4.922c4.505,0,8.732-1.748,11.908-4.922l27.009-27.013
		c3.178-3.174,4.925-7.401,4.925-11.907s-1.747-8.734-4.923-11.907l-30.738-30.738l54.1-54.1c6.563-6.565,6.563-17.249-0.002-23.813
		L355.846,411.304z"/>
	<path fill="#FFFFFF" d="M603.367,98.631c-11.508-11.507-30.164-11.507-41.672,0l-55.037,55.038l-30.215-30.215
		c-9.823-9.825-22.933-15.235-36.91-15.235c-13.977,0-27.086,5.41-36.909,15.235l-78.6,78.6c-2.346,2.346-4.432,4.883-6.262,7.572
		l-6.402-6.402c-3.174-3.174-7.402-4.922-11.906-4.922s-8.734,1.748-11.906,4.922l-27.012,27.012
		c-3.176,3.174-4.923,7.402-4.923,11.908c0,4.504,1.748,8.734,4.923,11.907L448.193,441.71c3.174,3.174,7.402,4.922,11.906,4.922
		c4.506,0,8.732-1.748,11.906-4.922l27.014-27.014c6.565-6.565,6.565-17.247,0-23.813l-6.399-6.4
		c2.688-1.829,5.225-3.915,7.57-6.262l78.6-78.6c9.825-9.823,15.236-22.934,15.236-36.909c0-13.976-5.41-27.086-15.236-36.91
		l-30.461-30.46l55.038-55.038C614.876,128.795,614.876,110.139,603.367,98.631z"/>
</g>
</svg>
