<?xml version="1.0" encoding="utf-8"?>
<!-- Generator: Adobe Illustrator 16.0.0, SVG Export Plug-In . SVG Version: 6.00 Build 0)  -->
<!DOCTYPE svg PUBLIC "-//W3C//DTD SVG 1.1//EN" "http://www.w3.org/Graphics/SVG/1.1/DTD/svg11.dtd">
<svg version="1.1" id="Layer_1" xmlns="http://www.w3.org/2000/svg" xmlns:xlink="http://www.w3.org/1999/xlink" x="0px" y="0px"
	 width="512px" height="512px" viewBox="0 0 512 512" enable-background="new 0 0 512 512" xml:space="preserve">
<path fill="#FFFFFF" d="M389.742,421.909v18.879c0,10.426-8.554,18.879-19.105,18.879H64.939c-10.552,0-19.106-8.453-19.106-18.879
	V138.728c0-10.427,8.554-18.879,19.106-18.879h19.106v245.424c0,31.28,25.662,56.637,57.318,56.637H389.742z M466.167,63.212
	v302.061c0,10.427-8.555,18.879-19.106,18.879H141.364c-10.552,0-19.106-8.452-19.106-18.879V63.212
	c0-10.426,8.554-18.878,19.106-18.878h305.697C457.612,44.333,466.167,52.786,466.167,63.212z M389.742,214.243
	c0-10.427-8.554-18.879-19.105-18.879h-57.318v-56.636c0-10.427-8.554-18.879-19.106-18.879c-10.552,0-19.105,8.453-19.105,18.879
	v56.636h-57.318c-10.552,0-19.106,8.452-19.106,18.879c0,10.426,8.554,18.878,19.106,18.878h57.318v56.636
	c0,10.428,8.554,18.88,19.105,18.88c10.553,0,19.106-8.452,19.106-18.88v-56.636h57.318
	C381.188,233.121,389.742,224.669,389.742,214.243z"/>
</svg>
