<?xml version="1.0" encoding="utf-8"?>
<!-- Generator: Adobe Illustrator 16.0.0, SVG Export Plug-In . SVG Version: 6.00 Build 0)  -->
<!DOCTYPE svg PUBLIC "-//W3C//DTD SVG 1.1//EN" "http://www.w3.org/Graphics/SVG/1.1/DTD/svg11.dtd">
<svg version="1.1" id="Layer_1" xmlns="http://www.w3.org/2000/svg" xmlns:xlink="http://www.w3.org/1999/xlink" x="0px" y="0px"
	 width="511px" height="511px" viewBox="0 0 511 511" enable-background="new 0 0 511 511" xml:space="preserve">
<path fill="#FFFFFF" d="M491.115,303.923l-85.719,85.458c-3.895,3.883-8.994,5.824-14.09,5.824c-5.119,0-10.234-1.957-14.133-5.867
	c-7.785-7.805-7.766-20.44,0.039-28.223l85.719-85.461c10.87-10.83,10.909-28.499,0.098-39.384l-85.883-86.452
	c-7.766-7.817-7.727-20.456,0.094-28.222c7.816-7.77,20.456-7.727,28.227,0.093l85.878,86.452
	C517.642,234.609,517.54,277.576,491.115,303.923z M133.857,149.818c7.77-7.821,7.727-20.456-0.094-28.226
	c-7.821-7.766-20.456-7.727-28.226,0.097l-85.879,86.448c-26.3,26.472-26.195,69.438,0.23,95.785l85.719,85.458
	c3.895,3.887,8.994,5.824,14.089,5.824c5.119,0,10.234-1.957,14.133-5.867c7.781-7.805,7.766-20.44-0.043-28.223l-85.719-85.461
	c-10.865-10.83-10.904-28.499-0.093-39.384L133.857,149.818z M255.502,235.541c-11.006,0-19.957,8.955-19.957,19.961
	c0,11.002,8.951,19.957,19.957,19.957s19.957-8.955,19.957-19.957C275.459,244.496,266.508,235.541,255.502,235.541z
	 M335.334,235.541c-11.006,0-19.957,8.955-19.957,19.961c0,11.002,8.951,19.957,19.957,19.957s19.957-8.955,19.957-19.957
	C355.291,244.496,346.34,235.541,335.334,235.541z M175.67,235.541c-11.006,0-19.957,8.955-19.957,19.961
	c0,11.002,8.951,19.957,19.957,19.957s19.957-8.955,19.957-19.957C195.627,244.496,186.676,235.541,175.67,235.541z"/>
</svg>
