<?xml version="1.0" encoding="utf-8"?>
<!-- Generator: Adobe Illustrator 16.0.0, SVG Export Plug-In . SVG Version: 6.00 Build 0)  -->
<!DOCTYPE svg PUBLIC "-//W3C//DTD SVG 1.1//EN" "http://www.w3.org/Graphics/SVG/1.1/DTD/svg11.dtd">
<svg version="1.1" id="Capa_1" xmlns="http://www.w3.org/2000/svg" xmlns:xlink="http://www.w3.org/1999/xlink" x="0px" y="0px"
	 width="510px" height="510px" viewBox="0 0 510 510" enable-background="new 0 0 510 510" xml:space="preserve">
<g>
	<g id="account-circle">
		<path fill="#FFFFFF" d="M257,52C143.906,52,51.375,146.05,51.375,261c0,114.949,92.531,209,205.625,209
			s205.625-94.051,205.625-209C462.625,146.05,370.094,52,257,52z M257,114.7c34.956,0,61.688,27.17,61.688,62.7
			c0,35.53-26.731,62.699-61.688,62.699s-61.688-27.169-61.688-62.699C195.313,141.87,222.044,114.7,257,114.7z M257,411.479
			c-51.406,0-96.644-27.169-123.375-66.879c0-41.8,82.25-64.79,123.375-64.79s123.375,22.99,123.375,64.79
			C353.644,384.31,308.406,411.479,257,411.479z"/>
	</g>
</g>
</svg>
