<?xml version="1.0" encoding="utf-8"?>
<!-- Generator: Adobe Illustrator 16.0.0, SVG Export Plug-In . SVG Version: 6.00 Build 0)  -->
<!DOCTYPE svg PUBLIC "-//W3C//DTD SVG 1.1//EN" "http://www.w3.org/Graphics/SVG/1.1/DTD/svg11.dtd">
<svg version="1.1" id="Layer_1" xmlns="http://www.w3.org/2000/svg" xmlns:xlink="http://www.w3.org/1999/xlink" x="0px" y="0px"
	 width="512px" height="512px" viewBox="0 0 512 512" enable-background="new 0 0 512 512" xml:space="preserve">
<g id="_x31_8_Data_Setting">
	<g>
		<polygon fill="#FFFFFF" points="271,64.755 271,148.502 351.619,148.502 		"/>
		<path fill="#FFFFFF" d="M476.153,393.616c2.09-9.18,3.314-18.709,3.314-28.555c0-9.847-1.223-19.376-3.314-28.559h-18.907
			c-2.155-7.901-5.136-15.432-8.917-22.456l13.326-13.844c-9.761-16.415-23.077-30.246-38.877-40.385l-13.325,13.843
			c-6.764-3.932-14.012-7.026-21.619-9.266v-19.638c-8.838-2.173-18.011-3.443-27.49-3.443c-9.479,0-18.65,1.27-27.489,3.443v19.638
			c-7.607,2.238-14.856,5.334-21.619,9.266l-13.325-13.843c-15.803,10.139-29.117,23.968-38.877,40.385l13.327,13.844
			c-3.783,7.024-6.764,14.555-8.919,22.456h-18.906c-2.091,9.183-3.314,18.712-3.314,28.559c0,9.846,1.222,19.375,3.314,28.555
			h18.906c2.154,7.906,5.135,15.436,8.917,22.46l-13.325,13.842c9.76,16.417,23.074,30.248,38.877,40.387l13.325-13.841
			c6.763,3.928,14.012,7.022,21.619,9.264v19.638c8.839,2.172,18.011,3.444,27.489,3.444c9.479,0,18.652-1.272,27.49-3.444v-19.638
			c7.607-2.241,14.855-5.336,21.619-9.264l13.325,13.841c15.8-10.139,29.116-23.97,38.877-40.387l-13.325-13.842
			c3.783-7.024,6.763-14.554,8.917-22.46H476.153z M360.343,411.468c-24.672,0-44.672-20.778-44.672-46.406
			c0-25.631,20-46.406,44.672-46.406c24.671,0,44.672,20.775,44.672,46.406C405.015,390.689,385.014,411.468,360.343,411.468z"/>
		<path fill="#FFFFFF" d="M256.11,179.44c-8.224,0-14.89-6.919-14.89-15.469V55.691H77.422c-8.223,0-14.89,6.919-14.89,15.469
			v371.241c0,8.551,6.667,15.469,14.89,15.469h164c-18.743-25.87-29.984-57.938-29.984-92.809
			c0-85.432,66.667-154.686,148.905-154.686v-30.936L256.11,179.44L256.11,179.44z"/>
	</g>
</g>
</svg>
