<?xml version="1.0" encoding="utf-8"?>
<!-- Generator: Adobe Illustrator 16.0.0, SVG Export Plug-In . SVG Version: 6.00 Build 0)  -->
<!DOCTYPE svg PUBLIC "-//W3C//DTD SVG 1.1//EN" "http://www.w3.org/Graphics/SVG/1.1/DTD/svg11.dtd">
<svg version="1.1" id="Layer_1" xmlns="http://www.w3.org/2000/svg" xmlns:xlink="http://www.w3.org/1999/xlink" x="0px" y="0px"
	 width="511px" height="511px" viewBox="0 0 511 511" enable-background="new 0 0 511 511" xml:space="preserve">
<path fill="#FFFFFF" d="M424.659,245.162v87.678H304.48v-87.678c-26.594-17.346-44.168-45.409-48.126-76.364h-0.861v-11.275h-38.726
	L201.5,127.436H60.242V422h390.506V221.251C443.511,230.473,434.739,238.591,424.659,245.162z M106.032,331.731v-22.548h90.761
	v22.548H106.032z M196.793,354.318v22.548h-90.761v-22.548H196.793z"/>
<path fill="#FFFFFF" d="M327.362,284.896h74.418v25.394h-74.418V284.896z"/>
<path fill="#FFFFFF" d="M321.63,229.114l5.732,3.253v29.983h25.769v-59.183l-33.316-32.828l16.182-15.943l28.575,28.161
	l28.573-28.161l16.181,15.943l-33.313,32.828v59.183h25.766v-29.983l5.732-3.253c26.676-15.142,43.246-43.36,43.246-73.646
	c0-22.596-8.905-43.865-25.074-59.887c-16.161-16.017-37.678-24.911-60.59-25.042c-0.173-0.003-0.345-0.003-0.518-0.003
	c-22.796,0-44.323,8.796-60.665,24.809c-16.461,16.126-25.526,37.479-25.526,60.125C278.386,185.753,294.955,213.972,321.63,229.114
	z"/>
</svg>
