<?xml version="1.0" encoding="utf-8"?>
<!-- Generator: Adobe Illustrator 16.0.0, SVG Export Plug-In . SVG Version: 6.00 Build 0)  -->
<!DOCTYPE svg PUBLIC "-//W3C//DTD SVG 1.1//EN" "http://www.w3.org/Graphics/SVG/1.1/DTD/svg11.dtd">
<svg version="1.1" id="Layer_1" xmlns="http://www.w3.org/2000/svg" xmlns:xlink="http://www.w3.org/1999/xlink" x="0px" y="0px"
	 width="612px" height="792px" viewBox="0 0 612 792" enable-background="new 0 0 612 792" xml:space="preserve">
<g>
	<g>
		<g>
			<path fill="#FFFFFF" d="M428.79,90H111.272c-30.683,0-55.636,24.926-55.636,55.637v500.728c0,30.712,24.953,55.637,55.637,55.637
				h389.454c30.684,0,55.637-24.925,55.637-55.637v-428.79L428.79,90z M222.546,562.91h-27.817v55.637h-55.637V396.001h83.455
				c46.011,0,83.455,37.443,83.455,83.454S268.557,562.91,222.546,562.91z M417.69,534.062v84.483h-55.637v-83.454h-0.418L306,396
				h55.636l27.819,69.546l27.818-69.545h55.637L417.69,534.062z M389.455,256.909V117.818l139.09,139.091H389.455z"/>
			<path fill="#FFFFFF" d="M222.546,451.636h-27.817v55.638h27.817c15.356,0,27.818-12.491,27.818-27.818
				C250.364,464.127,237.902,451.636,222.546,451.636z"/>
		</g>
	</g>
</g>
</svg>
