<?xml version="1.0" encoding="utf-8"?>
<!-- Generator: Adobe Illustrator 16.0.0, SVG Export Plug-In . SVG Version: 6.00 Build 0)  -->
<!DOCTYPE svg PUBLIC "-//W3C//DTD SVG 1.1//EN" "http://www.w3.org/Graphics/SVG/1.1/DTD/svg11.dtd">
<svg version="1.1" id="Capa_1" xmlns="http://www.w3.org/2000/svg" xmlns:xlink="http://www.w3.org/1999/xlink" x="0px" y="0px"
	 width="612px" height="792px" viewBox="0 0 612 792" enable-background="new 0 0 612 792" xml:space="preserve">
<g>
	<g>
		<g>
			<path fill="#FFFFFF" d="M216.75,396h76.5c7.048,0,12.75-5.703,12.75-12.75v-76.5c0-7.047-5.703-12.75-12.75-12.75h-76.5
				c-7.047,0-12.75,5.703-12.75,12.75v76.5C204,390.297,209.703,396,216.75,396z"/>
			<path fill="#FFFFFF" d="M344.25,319.5h102c7.047,0,12.75-5.703,12.75-12.75c0-7.047-5.703-12.75-12.75-12.75h-102
				c-7.048,0-12.75,5.703-12.75,12.75C331.5,313.797,337.202,319.5,344.25,319.5z"/>
			<path fill="#FFFFFF" d="M344.25,396h102c7.047,0,12.75-5.703,12.75-12.75c0-7.047-5.703-12.75-12.75-12.75h-102
				c-7.048,0-12.75,5.703-12.75,12.75C331.5,390.297,337.202,396,344.25,396z"/>
			<path fill="#FFFFFF" d="M573.526,373.937L535.5,352.485V179.131c0-7.049-5.703-12.631-12.75-12.631H198.503
				c-51.604-28.165-98.889-53.896-135.687-73.575C45.721,83.82,25.5,97.271,25.5,115.367v561.127
				c0,14.061,11.443,25.506,25.5,25.506c4.034,0,8.006-1.034,11.804-3.063c65.842-35.22,510.723-281.012,510.723-281.012
				c8.006-4.534,12.974-12.953,12.974-21.994C586.499,386.889,581.531,378.47,573.526,373.937z M510,359.925v64.436L331.485,523.5
				H165.75c-7.035,0-12.75-5.756-12.75-12.793V268.401h357V359.925z"/>
		</g>
	</g>
</g>
</svg>
