<?xml version="1.0" encoding="utf-8"?>
<!-- Generator: Adobe Illustrator 16.0.0, SVG Export Plug-In . SVG Version: 6.00 Build 0)  -->
<!DOCTYPE svg PUBLIC "-//W3C//DTD SVG 1.1//EN" "http://www.w3.org/Graphics/SVG/1.1/DTD/svg11.dtd">
<svg version="1.1" id="Capa_1" xmlns="http://www.w3.org/2000/svg" xmlns:xlink="http://www.w3.org/1999/xlink" x="0px" y="0px"
	 width="512px" height="512px" viewBox="0 0 512 512" enable-background="new 0 0 512 512" xml:space="preserve">
<g>
	<path fill="#FFFFFF" d="M355.044,0H156.957v234h198.087V0z M325.044,60h-78.087V30h78.087V60z M216.957,30v30h-30V30H216.957z
		 M186.957,204V90h138.087v114H186.957z"/>
	<path fill="#FFFFFF" d="M0,512h198.087V278H0V512z M30,482V368h138.087v114H30z M168.087,338H90v-30h78.087V338z M60,308v30H30v-30
		H60z"/>
	<path fill="#FFFFFF" d="M313.913,278v234H512V278H313.913z M482,338h-78.087v-30H482V338z M373.913,308v30h-30v-30H373.913z
		 M343.913,482V368H482v114H343.913z"/>
	<path fill="#FFFFFF" d="M65.283,182.957h55.435v-30H35.283v85.434h30V182.957z"/>
	<path fill="#FFFFFF" d="M446.718,238.391h30v-85.434h-85.435v30h55.435V238.391z"/>
	<path fill="#FFFFFF" d="M231,385.75h50v30h-50V385.75z"/>
</g>
</svg>
