<?xml version="1.0" encoding="utf-8"?>
<!-- Generator: Adobe Illustrator 16.0.0, SVG Export Plug-In . SVG Version: 6.00 Build 0)  -->
<!DOCTYPE svg PUBLIC "-//W3C//DTD SVG 1.1//EN" "http://www.w3.org/Graphics/SVG/1.1/DTD/svg11.dtd">
<svg version="1.1" id="Layer_1" xmlns="http://www.w3.org/2000/svg" xmlns:xlink="http://www.w3.org/1999/xlink" x="0px" y="0px"
	 width="512px" height="512px" viewBox="0 0 512 512" enable-background="new 0 0 512 512" xml:space="preserve">
<path fill="#FFFFFF" d="M392.893,369.82v33.477c0,36.919-29.613,66.953-66.015,66.953H161.015C124.613,470.25,95,440.216,95,403.297
	V108.703c0-36.919,29.613-66.953,66.015-66.953h165.863c36.401,0,66.015,30.034,66.015,66.953v33.477
	c0,9.245-7.388,16.738-16.504,16.738c-9.115,0-16.504-7.493-16.504-16.738v-33.477c0-18.458-14.808-33.477-33.007-33.477H161.015
	c-18.199,0-33.008,15.019-33.008,33.477v294.594c0,18.458,14.809,33.477,33.008,33.477h165.863
	c18.199,0,33.007-15.019,33.007-33.477V369.82c0-9.245,7.389-16.738,16.504-16.738C385.505,353.082,392.893,360.575,392.893,369.82z
	 M505.411,227.248l-36.956-37.481c-6.446-6.539-16.896-6.539-23.34,0c-6.447,6.535-6.447,17.134,0,23.669l26.286,26.664H273.24
	c-9.115,0-16.504,7.493-16.504,16.738s7.389,16.738,16.504,16.738h198.161l-26.286,26.663c-6.447,6.535-6.447,17.135,0,23.67
	c3.223,3.269,7.445,4.903,11.668,4.903c4.227,0,8.449-1.635,11.672-4.903l36.956-37.482
	C521.5,270.109,521.5,243.564,505.411,227.248z"/>
</svg>
