<?xml version="1.0" encoding="utf-8"?>
<!-- Generator: Adobe Illustrator 16.0.0, SVG Export Plug-In . SVG Version: 6.00 Build 0)  -->
<!DOCTYPE svg PUBLIC "-//W3C//DTD SVG 1.1//EN" "http://www.w3.org/Graphics/SVG/1.1/DTD/svg11.dtd">
<svg version="1.1" id="Layer_1" xmlns="http://www.w3.org/2000/svg" xmlns:xlink="http://www.w3.org/1999/xlink" x="0px" y="0px"
	 width="512px" height="512px" viewBox="0 0 512 512" enable-background="new 0 0 512 512" xml:space="preserve">
<path fill="#FFFFFF" d="M488.75,111.063V26.25h-85.918v27.374H298.959V26.25h-85.918v27.374H109.167V26.25H23.25v84.813h27.73
	v102.539H23.25v84.814h27.73v102.521H23.25v84.813h85.917v-27.356h103.874v27.356h85.918v-27.356h103.873v27.356h85.918v-84.813
	h-27.73V298.416h27.73v-84.814h-27.73V111.063H488.75z M433.744,213.602h-30.912v84.814h30.912v102.521h-30.912v30.532H298.959
	v-30.532h-85.918v30.532H109.167v-30.532H78.255V298.416h30.912v-84.814H78.255V111.063h30.912V80.548h103.874v30.515h85.918V80.548
	h103.873v30.515h30.912V213.602z"/>
</svg>
