<?xml version="1.0" encoding="utf-8"?>
<!-- Generator: Adobe Illustrator 16.0.0, SVG Export Plug-In . SVG Version: 6.00 Build 0)  -->
<!DOCTYPE svg PUBLIC "-//W3C//DTD SVG 1.1//EN" "http://www.w3.org/Graphics/SVG/1.1/DTD/svg11.dtd">
<svg version="1.1" id="icons" xmlns="http://www.w3.org/2000/svg" xmlns:xlink="http://www.w3.org/1999/xlink" x="0px" y="0px"
	 width="512px" height="512px" viewBox="0 0 512 512" enable-background="new 0 0 512 512" xml:space="preserve">
<path fill="#FFFFFF" d="M48.327,492h415.346c15.847-0.071,28.676-13.345,28.744-29.741V58.241
	c-0.068-16.396-12.897-29.67-28.744-29.741H48.327C32.48,28.571,19.65,41.845,19.583,58.241v404.018
	C19.652,478.655,32.48,491.929,48.327,492L48.327,492z M467.53,376.125h-62.214v-231.75h62.214V376.125z M380.43,376.125h-248.86
	v-231.75h248.859L380.43,376.125L380.43,376.125z M106.684,376.125H44.469v-231.75h62.215V376.125z M48.327,466.251
	c-2.13,0-3.858-1.787-3.858-3.992l0,0v-60.382h62.215v64.374H48.327z M131.569,466.251v-64.374h248.859v64.374H131.569z
	 M467.53,462.259c0,2.204-1.728,3.992-3.857,3.992l0,0h-58.356v-64.374h62.214V462.259z M463.673,54.25
	c2.129,0,3.857,1.786,3.857,3.991l0,0v60.383h-62.214V54.25H463.673z M380.43,54.25v64.375h-248.86V54.25H380.43z M44.469,58.241
	c0-2.204,1.727-3.991,3.858-3.991h58.356v64.375H44.469V58.241z"/>
</svg>
