<?xml version="1.0" encoding="utf-8"?>
<!-- Generator: Adobe Illustrator 16.0.0, SVG Export Plug-In . SVG Version: 6.00 Build 0)  -->
<!DOCTYPE svg PUBLIC "-//W3C//DTD SVG 1.1//EN" "http://www.w3.org/Graphics/SVG/1.1/DTD/svg11.dtd">
<svg version="1.1" id="Layer_1" xmlns="http://www.w3.org/2000/svg" xmlns:xlink="http://www.w3.org/1999/xlink" x="0px" y="0px"
	 width="512px" height="512px" viewBox="0 0 512 512" enable-background="new 0 0 512 512" xml:space="preserve">
<path fill="#FFFFFF" d="M492,39.332h-98V20c0-11.047-8.953-20-20-20H138c-11.047,0-20,8.953-20,20v19.332H20
	c-11.047,0-20,8.953-20,20v314.664c0,11.043,8.953,20,20,20h98v19.332c0,11.047,8.953,20,20,20h236c11.047,0,20-8.953,20-20v-19.332
	h98c11.047,0,20-8.953,20-20V59.332C512,48.285,503.047,39.332,492,39.332z M115.438,353.996H40V79.332h75.438V353.996z
	 M354,393.328H158V40h196V393.328z M472,353.996h-78V79.332h78V353.996z M315,137.664H197c-11.047,0-20,8.953-20,20v118
	c0,11.047,8.953,20,20,20h118c11.047,0,20-8.953,20-20v-118C335,146.617,326.047,137.664,315,137.664z M295,255.664h-78v-78h78
	V255.664z M335,98.664c0,11.047-8.953,20-20,20H197c-11.047,0-20-8.953-20-20s8.953-20,20-20h118
	C326.047,78.664,335,87.617,335,98.664z M335,334.664c0,11.047-8.953,20-20,20H197c-11.047,0-20-8.953-20-20s8.953-20,20-20h118
	C326.047,314.664,335,323.617,335,334.664z"/>
</svg>
