<?xml version="1.0" encoding="utf-8"?>
<!-- Generator: Adobe Illustrator 16.0.0, SVG Export Plug-In . SVG Version: 6.00 Build 0)  -->
<!DOCTYPE svg PUBLIC "-//W3C//DTD SVG 1.1//EN" "http://www.w3.org/Graphics/SVG/1.1/DTD/svg11.dtd">
<svg version="1.1" id="bold" xmlns="http://www.w3.org/2000/svg" xmlns:xlink="http://www.w3.org/1999/xlink" x="0px" y="0px"
	 width="512px" height="512px" viewBox="0 0 512 512" enable-background="new 0 0 512 512" xml:space="preserve">
<path fill="#FFFFFF" d="M469.333,213.333c-17.855,0-33.151,11.05-39.487,26.667H229.333c-8.832,0-16,7.168-16,16s7.168,16,16,16
	h200.512c6.336,15.616,21.632,26.666,39.487,26.666C492.864,298.666,512,279.531,512,256
	C512,232.469,492.864,213.333,469.333,213.333z"/>
<path fill="#FFFFFF" d="M469.333,64c-17.855,0-33.151,11.051-39.487,26.667h-67.179c-4.438,0-8.662,1.835-11.691,5.078
	l-69.931,74.922h-51.711c-8.832,0-16,7.168-16,16c0,8.832,7.168,16,16,16H288c4.438,0,8.661-1.834,11.69-5.077l69.931-74.923h60.225
	c6.336,15.616,21.632,26.667,39.487,26.667c23.531,0,42.667-19.136,42.667-42.667S492.864,64,469.333,64z"/>
<path fill="#FFFFFF" d="M469.333,362.666c-17.855,0-33.151,11.051-39.487,26.668h-60.225L299.69,314.41
	c-3.029-3.242-7.253-5.076-11.69-5.076h-58.667c-8.832,0-16,7.168-16,16s7.168,16,16,16h51.711l69.931,74.922
	c3.029,3.243,7.254,5.077,11.691,5.077h67.179C436.182,436.949,451.478,448,469.333,448C492.864,448,512,428.864,512,405.333
	C512,381.803,492.864,362.666,469.333,362.666L469.333,362.666z"/>
<path fill="#FFFFFF" d="M46.037,423.787l5.461,54.592C53.397,497.536,69.354,512,88.64,512h142.72
	c19.264,0,35.243-14.464,37.142-33.621l5.461-54.592c6.421-1.899,12.395-4.779,17.813-8.448L262.507,384H64
	c-11.755,0-21.333-9.578-21.333-21.334V149.333C42.667,137.579,52.245,128,64,128h198.507l29.269-31.36
	c-5.418-3.648-11.392-6.549-17.813-8.427l-5.461-54.592C266.603,14.464,250.646,0,231.36,0H88.64
	C69.354,0,53.397,14.464,51.499,33.621l-5.461,54.592C19.52,96.042,0,120.32,0,149.333v213.333
	C0,391.68,19.52,415.957,46.037,423.787z"/>
</svg>
