<?xml version="1.0" encoding="utf-8"?>
<!-- Generator: Adobe Illustrator 16.0.0, SVG Export Plug-In . SVG Version: 6.00 Build 0)  -->
<!DOCTYPE svg PUBLIC "-//W3C//DTD SVG 1.1//EN" "http://www.w3.org/Graphics/SVG/1.1/DTD/svg11.dtd">
<svg version="1.1" id="Capa_1" xmlns="http://www.w3.org/2000/svg" xmlns:xlink="http://www.w3.org/1999/xlink" x="0px" y="0px"
	 width="612px" height="792px" viewBox="0 0 612 792" enable-background="new 0 0 612 792" xml:space="preserve">
<g>
	<g>
		
			<rect x="74.656" y="125.813" transform="matrix(-0.7071 0.7071 -0.7071 -0.7071 287.1634 246.2296)" fill="#FFFFFF" width="35.859" height="113.552"/>
	</g>
</g>
<g>
	<g>
		<rect x="173.967" y="90.821" fill="#FFFFFF" width="35.859" height="89.648"/>
	</g>
</g>
<g>
	<g>
		<rect x="0.824" y="263.964" fill="#FFFFFF" width="89.648" height="35.859"/>
	</g>
</g>
<g>
	<g>
		
			<rect x="501.474" y="552.632" transform="matrix(-0.7071 0.7071 -0.7071 -0.7071 1317.5945 673.0509)" fill="#FFFFFF" width="35.859" height="113.552"/>
	</g>
</g>
<g>
	<g>
		<rect x="521.527" y="492.173" fill="#FFFFFF" width="89.648" height="35.859"/>
	</g>
</g>
<g>
	<g>
		<rect x="402.175" y="611.524" fill="#FFFFFF" width="35.859" height="89.648"/>
	</g>
</g>
<g>
	<g>
		<path fill="#FFFFFF" d="M419.928,282.072c-4.285-4.286-8.759-8.268-13.386-11.97L329,347.645
			c5.375,2.56,10.414,6.053,14.858,10.497c20.972,20.972,20.973,55.097,0,76.069l-144.531,144.53
			c-20.973,20.972-55.097,20.972-76.07,0c-20.973-20.972-20.972-55.097,0-76.07l10.697-10.696
			c-22.302-39.98-29.621-86.131-21.972-130.166l-64.794,64.794c-62.917,62.918-62.917,165.29,0,228.208
			c62.917,62.917,165.29,62.917,228.208,0l144.531-144.531C482.845,447.362,482.845,344.988,419.928,282.072z"/>
	</g>
</g>
<g>
	<g>
		<path fill="#FFFFFF" d="M564.812,137.188c-62.917-62.917-165.29-62.917-228.207,0l-144.53,144.53
			c-62.917,62.917-62.917,165.29,0,228.208c4.249,4.248,8.731,8.229,13.397,11.959l77.53-77.53
			c-5.375-2.561-10.415-6.053-14.859-10.497c-20.905-20.905-20.967-54.872-0.198-75.86
			c-0.005-0.005,144.729-144.739,144.729-144.739c20.973-20.973,55.097-20.972,76.069,0s20.973,55.097,0,76.07l76.069,76.068
			C627.729,302.479,627.729,200.106,564.812,137.188z"/>
	</g>
</g>
</svg>
