<?xml version="1.0" encoding="utf-8"?>
<!-- Generator: Adobe Illustrator 16.0.0, SVG Export Plug-In . SVG Version: 6.00 Build 0)  -->
<!DOCTYPE svg PUBLIC "-//W3C//DTD SVG 1.1//EN" "http://www.w3.org/Graphics/SVG/1.1/DTD/svg11.dtd">
<svg version="1.1" id="Capa_1" xmlns="http://www.w3.org/2000/svg" xmlns:xlink="http://www.w3.org/1999/xlink" x="0px" y="0px"
	 width="512px" height="512px" viewBox="0 0 512 512" enable-background="new 0 0 512 512" xml:space="preserve">
<g>
	<path fill="#FFFFFF" d="M448.828,179.917H63.172c-18.06,0-32.922,15.027-32.922,33.287v237.76
		c0,18.261,14.862,33.287,32.922,33.287h385.656c18.061,0,32.923-15.026,32.923-33.287v-237.76
		C481.75,194.943,466.888,179.917,448.828,179.917z M411.203,341.594H307.734c-7.713,0-14.109-6.468-14.109-14.266
		s6.396-14.266,14.109-14.266h103.469c7.713,0,14.109,6.468,14.109,14.266S418.916,341.594,411.203,341.594z M425.313,384.391
		c0,7.798-6.396,14.266-14.109,14.266H307.734c-7.713,0-14.109-6.468-14.109-14.266s6.396-14.266,14.109-14.266h103.469
		C418.916,370.125,425.313,376.593,425.313,384.391z M411.203,284.531H307.734c-7.713,0-14.109-6.468-14.109-14.266
		S300.021,256,307.734,256h103.469c7.713,0,14.109,6.468,14.109,14.266S418.916,284.531,411.203,284.531z M256,322.572
		c0,47.172-38.001,85.594-84.656,85.594s-84.656-38.422-84.656-85.594s38.001-85.593,84.656-85.593S256,275.4,256,322.572z"/>
	<path fill="#FFFFFF" d="M448.828,27.75H63.172c-18.154,0-32.922,14.932-32.922,33.287v47.553c0,18.354,14.768,33.286,32.922,33.286
		h385.656c18.154,0,32.922-14.932,32.922-33.287V61.037C481.75,42.682,466.982,27.75,448.828,27.75z"/>
</g>
</svg>
